<?xml version="1.0" encoding="UTF-8"?>
<svg version="1.1" xmlns="http://www.w3.org/2000/svg" width="500" height="500">
<path d="M0 0 C0.76391412 0.01055676 1.52782824 0.02111351 2.31489128 0.03199017 C4.95108858 0.07624615 7.58570686 0.14599887 10.22120667 0.22091675 C11.19613233 0.24691499 12.17105799 0.27291324 13.17552686 0.29969931 C21.36297878 0.52533871 29.54788484 0.8145644 37.73316956 1.10714722 C40.46993496 1.2030136 43.20673234 1.29795418 45.94352722 1.39297485 C53.32518546 1.64997033 60.70667262 1.91165837 68.08813024 2.17434454 C72.70450372 2.33860203 77.3209132 2.50183178 81.93733025 2.66485977 C94.74646702 3.11736004 107.55556589 3.5708964 120.36451054 4.02880669 C121.18057784 4.05797967 121.99664515 4.08715266 122.83744177 4.11720968 C124.49130406 4.17633644 126.14516633 4.23546376 127.79902858 4.29459165 C128.61985858 4.32393616 129.44068858 4.35328067 130.28639221 4.3835144 C131.10823391 4.41289593 131.93007561 4.44227746 132.77682161 4.47254933 C146.12598863 4.9495873 159.47541791 5.41881237 172.82497949 5.88466524 C186.56564061 6.36427104 200.30606775 6.85015782 214.04628175 7.34241021 C221.74743418 7.61816845 229.44865962 7.89128236 237.15014839 8.15749741 C243.6977692 8.38386208 250.24515355 8.61600177 256.79230357 8.85561191 C260.12904089 8.97755925 263.46580103 9.09591485 266.80286598 9.20875168 C270.42494652 9.33166966 274.04650555 9.4649326 277.66812134 9.60076904 C278.71520218 9.63385284 279.76228303 9.66693664 280.8410936 9.70102298 C289.90598218 10.06054903 297.7198532 10.40997502 304.22120667 17.22091675 C309.27903756 25.243683 308.54174885 35.12313379 308.94888306 44.30485535 C309.01545577 45.75001125 309.08232442 47.19515355 309.14946264 48.64028329 C309.33269064 52.60293506 309.51168075 56.56576856 309.68996012 60.52864563 C309.88314352 64.80645554 310.08024001 69.08408542 310.27682495 73.36174011 C310.66127882 81.74144474 311.04203228 90.12131359 311.42143375 98.50124834 C311.73013187 105.3182953 312.04010932 112.13528296 312.35099602 118.95223045 C312.39526631 119.92301217 312.4395366 120.89379388 312.48514841 121.89399322 C312.57509674 123.86634342 312.66504721 125.83869352 312.75499981 127.81104352 C313.59860521 146.31205716 314.43793209 164.81326305 315.27586948 183.31453415 C315.99373118 199.16215487 316.71554627 215.00959157 317.44020081 230.85690308 C318.28242219 249.27526388 319.12193305 267.69374518 319.95734972 286.11241597 C320.04663979 288.08082072 320.13593423 290.04922527 320.22523308 292.01762962 C320.26916385 292.98599871 320.31309463 293.95436779 320.35835664 294.95208139 C320.66689819 301.7490482 320.97737565 308.54592497 321.28863716 315.34276772 C321.66873989 323.64378682 322.04591579 331.94493287 322.41943652 340.24625085 C322.60980155 344.47535738 322.80142514 348.70439611 322.99665833 352.93328094 C323.44654034 362.69451626 323.86164106 372.45590305 324.22120667 382.22091675 C324.26226681 383.23772136 324.30332696 384.25452598 324.34563136 385.30214286 C324.4413708 387.84278227 324.50914137 390.38188437 324.56201172 392.92372131 C324.59530799 394.2041289 324.62860426 395.4845365 324.66290951 396.80374432 C324.02064373 401.77254391 321.9748265 405.41236774 318.45191956 409.04562378 C313.14938118 412.85560107 307.66216077 415.55509748 301.65870667 418.09591675 C300.5949884 418.55514526 299.53127014 419.01437378 298.43531799 419.48751831 C285.98529198 424.82286939 273.43453175 429.92240398 260.89294434 435.03770447 C253.30696362 438.13208913 245.73027449 441.2467582 238.17042542 444.4045105 C237.35955978 444.7432016 236.54869415 445.0818927 235.71325684 445.43084717 C231.16238915 447.33305943 226.61331031 449.2394872 222.06616211 451.15057373 C220.69342607 451.72266589 219.31790743 452.28812972 217.93960571 452.84667969 C214.94467282 454.06056393 212.06812093 455.30027532 209.19483948 456.7897644 C201.93045109 460.30350434 196.01348074 460.40099748 188.07437134 459.94830322 C186.98018829 459.89493848 185.88600525 459.84157374 184.75866514 459.78659189 C181.24536066 459.61107657 177.73338524 459.41759351 174.22120667 459.22091675 C171.96224846 459.09979247 169.70328586 458.97875034 167.44431877 458.8577919 C160.13873874 458.45856089 152.83516883 458.02718072 145.5315094 457.5944519 C142.75268439 457.4312714 139.97382041 457.26875814 137.19496155 457.1061554 C128.95740395 456.62349315 120.72012292 456.13620426 112.48289523 455.64794832 C110.15185139 455.50980448 107.82080051 455.37178004 105.48974729 455.23379469 C90.95519558 454.37339613 76.42073986 453.51139408 61.88656521 452.6446476 C58.54572099 452.44544108 55.20487576 452.24625149 51.86402893 452.04708862 C51.03392097 451.9976006 50.20381301 451.94811259 49.34855027 451.89712493 C35.84421761 451.09233257 22.33929631 450.29788642 8.83411085 449.50754769 C-5.07999544 448.69310025 -18.99351641 447.86919054 -32.90651745 447.03607213 C-40.69953286 446.56966375 -48.49274623 446.10741766 -56.28663826 445.65587234 C-62.90656089 445.27232203 -69.52590866 444.88024793 -76.14466316 444.47702123 C-79.51759428 444.27179975 -82.89061292 444.07200271 -86.26436424 443.88045692 C-89.92412022 443.67201881 -93.58261556 443.4481219 -97.24121094 443.22033691 C-98.30199358 443.16361144 -99.36277622 443.10688596 -100.45570379 443.04844153 C-107.52460997 442.58563785 -114.68868109 441.96216107 -119.65379333 436.34591675 C-122.67759911 431.89914355 -124.01842455 428.39742935 -124.0887146 423.02059937 C-124.11582551 421.47568062 -124.11582551 421.47568062 -124.14348412 419.89955139 C-124.1532509 418.77776993 -124.16301769 417.65598846 -124.17308044 416.50021362 C-124.19093409 415.30809769 -124.20878773 414.11598175 -124.22718239 412.88774109 C-124.27412187 409.5987046 -124.31221399 406.30970995 -124.34610105 403.02051735 C-124.37654807 400.20921065 -124.41400954 397.39801435 -124.45144957 394.58679342 C-124.57150227 385.55345982 -124.6680847 376.51995144 -124.75659466 367.48625946 C-124.77836358 365.26477281 -124.80051051 363.04329019 -124.82271576 360.82180786 C-125.04805858 338.12185947 -125.20505767 315.42155466 -125.34129333 292.72091675 C-125.34622409 291.90555293 -125.35115485 291.09018911 -125.35623503 290.2501173 C-125.50326939 265.93303089 -125.62906008 241.61586925 -125.74108392 217.29859769 C-125.77032608 210.97244495 -125.80124864 204.64630177 -125.83274841 198.32015991 C-125.92957179 178.7251529 -126.01090526 159.1302223 -126.0536108 139.53501511 C-126.07212538 131.12319879 -126.09652245 122.71151204 -126.13795471 114.29977417 C-126.17288575 107.18266446 -126.19396275 100.06568465 -126.19672048 92.94848669 C-126.19849054 89.32272955 -126.20665364 85.69728808 -126.23212433 82.07161331 C-126.25948219 78.1435838 -126.25569835 74.21593807 -126.24876404 70.28781128 C-126.26157693 69.14213936 -126.27438982 67.99646744 -126.28759098 66.81607819 C-126.23474971 58.80638197 -124.93855539 55.51513676 -119.39207458 49.7326355 C-114.26626555 45.72466366 -107.91690989 43.54554166 -101.96629333 41.03341675 C-100.55605321 40.42901044 -99.14631662 39.82342812 -97.73704529 39.21676636 C-95.48152288 38.2460809 -93.22564753 37.27629696 -90.96817017 36.31016541 C-83.50514124 33.11527157 -76.0764779 29.84426274 -68.6493988 26.56686401 C-65.1856125 25.03878071 -61.71849511 23.51868549 -58.24803162 22.00582886 C-50.60852318 18.67412877 -42.97854714 15.33283734 -35.41098022 11.84010315 C-32.29822102 10.40790124 -29.17422324 9.00137463 -26.04823303 7.59832764 C-24.60953967 6.94486081 -23.17604681 6.27978275 -21.74885559 5.6015625 C-21.07964081 5.28395966 -20.41042603 4.96635681 -19.72093201 4.63912964 C-19.14542099 4.36138199 -18.56990997 4.08363434 -17.97695923 3.79747009 C-11.83219381 1.23488666 -6.67819673 -0.18344713 0 0 Z " fill="#094479" transform="translate(150.77879333496094,19.779083251953125)"/>
<path d="M0 0 C0.76391412 0.01055676 1.52782824 0.02111351 2.31489128 0.03199017 C4.95108858 0.07624615 7.58570686 0.14599887 10.22120667 0.22091675 C11.19613233 0.24691499 12.17105799 0.27291324 13.17552686 0.29969931 C21.36297878 0.52533871 29.54788484 0.8145644 37.73316956 1.10714722 C40.46993496 1.2030136 43.20673234 1.29795418 45.94352722 1.39297485 C53.32518546 1.64997033 60.70667262 1.91165837 68.08813024 2.17434454 C72.70450372 2.33860203 77.3209132 2.50183178 81.93733025 2.66485977 C94.74646702 3.11736004 107.55556589 3.5708964 120.36451054 4.02880669 C121.18057784 4.05797967 121.99664515 4.08715266 122.83744177 4.11720968 C124.49130406 4.17633644 126.14516633 4.23546376 127.79902858 4.29459165 C128.61985858 4.32393616 129.44068858 4.35328067 130.28639221 4.3835144 C131.10823391 4.41289593 131.93007561 4.44227746 132.77682161 4.47254933 C146.12598863 4.9495873 159.47541791 5.41881237 172.82497949 5.88466524 C186.56564061 6.36427104 200.30606775 6.85015782 214.04628175 7.34241021 C221.74743418 7.61816845 229.44865962 7.89128236 237.15014839 8.15749741 C243.6977692 8.38386208 250.24515355 8.61600177 256.79230357 8.85561191 C260.12904089 8.97755925 263.46580103 9.09591485 266.80286598 9.20875168 C270.42494652 9.33166966 274.04650555 9.4649326 277.66812134 9.60076904 C278.71520218 9.63385284 279.76228303 9.66693664 280.8410936 9.70102298 C289.90598218 10.06054903 297.7198532 10.40997502 304.22120667 17.22091675 C309.27903756 25.243683 308.54174885 35.12313379 308.94888306 44.30485535 C309.01545577 45.75001125 309.08232442 47.19515355 309.14946264 48.64028329 C309.33269064 52.60293506 309.51168075 56.56576856 309.68996012 60.52864563 C309.88314352 64.80645554 310.08024001 69.08408542 310.27682495 73.36174011 C310.66127882 81.74144474 311.04203228 90.12131359 311.42143375 98.50124834 C311.73013187 105.3182953 312.04010932 112.13528296 312.35099602 118.95223045 C312.39526631 119.92301217 312.4395366 120.89379388 312.48514841 121.89399322 C312.57509674 123.86634342 312.66504721 125.83869352 312.75499981 127.81104352 C313.59860521 146.31205716 314.43793209 164.81326305 315.27586948 183.31453415 C315.99373118 199.16215487 316.71554627 215.00959157 317.44020081 230.85690308 C318.28242219 249.27526388 319.12193305 267.69374518 319.95734972 286.11241597 C320.04663979 288.08082072 320.13593423 290.04922527 320.22523308 292.01762962 C320.26916385 292.98599871 320.31309463 293.95436779 320.35835664 294.95208139 C320.66689819 301.7490482 320.97737565 308.54592497 321.28863716 315.34276772 C321.66873989 323.64378682 322.04591579 331.94493287 322.41943652 340.24625085 C322.60980155 344.47535738 322.80142514 348.70439611 322.99665833 352.93328094 C323.44654034 362.69451626 323.86164106 372.45590305 324.22120667 382.22091675 C324.26226681 383.23772136 324.30332696 384.25452598 324.34563136 385.30214286 C324.4413708 387.84278227 324.50914137 390.38188437 324.56201172 392.92372131 C324.59530799 394.2041289 324.62860426 395.4845365 324.66290951 396.80374432 C324.02064373 401.77254391 321.9748265 405.41236774 318.45191956 409.04562378 C313.14938118 412.85560107 307.66216077 415.55509748 301.65870667 418.09591675 C300.5949884 418.55514526 299.53127014 419.01437378 298.43531799 419.48751831 C285.98529198 424.82286939 273.43453175 429.92240398 260.89294434 435.03770447 C253.30696362 438.13208913 245.73027449 441.2467582 238.17042542 444.4045105 C237.35955978 444.7432016 236.54869415 445.0818927 235.71325684 445.43084717 C231.16238915 447.33305943 226.61331031 449.2394872 222.06616211 451.15057373 C220.69342607 451.72266589 219.31790743 452.28812972 217.93960571 452.84667969 C214.94467282 454.06056393 212.06812093 455.30027532 209.19483948 456.7897644 C201.93045109 460.30350434 196.01348074 460.40099748 188.07437134 459.94830322 C186.98018829 459.89493848 185.88600525 459.84157374 184.75866514 459.78659189 C181.24536066 459.61107657 177.73338524 459.41759351 174.22120667 459.22091675 C171.96224846 459.09979247 169.70328586 458.97875034 167.44431877 458.8577919 C160.13873874 458.45856089 152.83516883 458.02718072 145.5315094 457.5944519 C142.75268439 457.4312714 139.97382041 457.26875814 137.19496155 457.1061554 C128.95740395 456.62349315 120.72012292 456.13620426 112.48289523 455.64794832 C110.15185139 455.50980448 107.82080051 455.37178004 105.48974729 455.23379469 C90.95519558 454.37339613 76.42073986 453.51139408 61.88656521 452.6446476 C58.54572099 452.44544108 55.20487576 452.24625149 51.86402893 452.04708862 C51.03392097 451.9976006 50.20381301 451.94811259 49.34855027 451.89712493 C35.84421761 451.09233257 22.33929631 450.29788642 8.83411085 449.50754769 C-5.07999544 448.69310025 -18.99351641 447.86919054 -32.90651745 447.03607213 C-40.69953286 446.56966375 -48.49274623 446.10741766 -56.28663826 445.65587234 C-62.90656089 445.27232203 -69.52590866 444.88024793 -76.14466316 444.47702123 C-79.51759428 444.27179975 -82.89061292 444.07200271 -86.26436424 443.88045692 C-89.92412022 443.67201881 -93.58261556 443.4481219 -97.24121094 443.22033691 C-98.30199358 443.16361144 -99.36277622 443.10688596 -100.45570379 443.04844153 C-107.52460997 442.58563785 -114.68868109 441.96216107 -119.65379333 436.34591675 C-122.67759911 431.89914355 -124.01842455 428.39742935 -124.0887146 423.02059937 C-124.11582551 421.47568062 -124.11582551 421.47568062 -124.14348412 419.89955139 C-124.1532509 418.77776993 -124.16301769 417.65598846 -124.17308044 416.50021362 C-124.19093409 415.30809769 -124.20878773 414.11598175 -124.22718239 412.88774109 C-124.27412187 409.5987046 -124.31221399 406.30970995 -124.34610105 403.02051735 C-124.37654807 400.20921065 -124.41400954 397.39801435 -124.45144957 394.58679342 C-124.57150227 385.55345982 -124.6680847 376.51995144 -124.75659466 367.48625946 C-124.77836358 365.26477281 -124.80051051 363.04329019 -124.82271576 360.82180786 C-125.04805858 338.12185947 -125.20505767 315.42155466 -125.34129333 292.72091675 C-125.34622409 291.90555293 -125.35115485 291.09018911 -125.35623503 290.2501173 C-125.50326939 265.93303089 -125.62906008 241.61586925 -125.74108392 217.29859769 C-125.77032608 210.97244495 -125.80124864 204.64630177 -125.83274841 198.32015991 C-125.92957179 178.7251529 -126.01090526 159.1302223 -126.0536108 139.53501511 C-126.07212538 131.12319879 -126.09652245 122.71151204 -126.13795471 114.29977417 C-126.17288575 107.18266446 -126.19396275 100.06568465 -126.19672048 92.94848669 C-126.19849054 89.32272955 -126.20665364 85.69728808 -126.23212433 82.07161331 C-126.25948219 78.1435838 -126.25569835 74.21593807 -126.24876404 70.28781128 C-126.26157693 69.14213936 -126.27438982 67.99646744 -126.28759098 66.81607819 C-126.23474971 58.80638197 -124.93855539 55.51513676 -119.39207458 49.7326355 C-114.26626555 45.72466366 -107.91690989 43.54554166 -101.96629333 41.03341675 C-100.55605321 40.42901044 -99.14631662 39.82342812 -97.73704529 39.21676636 C-95.48152288 38.2460809 -93.22564753 37.27629696 -90.96817017 36.31016541 C-83.50514124 33.11527157 -76.0764779 29.84426274 -68.6493988 26.56686401 C-65.1856125 25.03878071 -61.71849511 23.51868549 -58.24803162 22.00582886 C-50.60852318 18.67412877 -42.97854714 15.33283734 -35.41098022 11.84010315 C-32.29822102 10.40790124 -29.17422324 9.00137463 -26.04823303 7.59832764 C-24.60953967 6.94486081 -23.17604681 6.27978275 -21.74885559 5.6015625 C-21.07964081 5.28395966 -20.41042603 4.96635681 -19.72093201 4.63912964 C-19.14542099 4.36138199 -18.56990997 4.08363434 -17.97695923 3.79747009 C-11.83219381 1.23488666 -6.67819673 -0.18344713 0 0 Z M-108.77879333 64.22091675 C-108.8579104 102.31098974 -108.64722458 140.39732399 -108.39170665 178.48624778 C-108.33445637 187.03008053 -108.27908765 195.57392523 -108.22378695 204.11777078 C-108.12519875 219.34218382 -108.02521691 234.56658734 -107.92430115 249.79098511 C-107.82653742 264.54032916 -107.72946584 279.28967751 -107.63328552 294.03903198 C-107.62731153 294.95511416 -107.62133754 295.87119633 -107.61518252 296.81503857 C-107.5852034 301.41282357 -107.55523747 306.01060866 -107.52527809 310.60839379 C-107.27849291 348.4792483 -107.02942197 386.35008749 -106.77879333 424.22091675 C-102.24084726 425.01212076 -97.84867166 425.4425531 -93.24363708 425.65060425 C-91.72019478 425.72276846 -90.19675752 425.79503932 -88.67332458 425.86740112 C-87.86846619 425.9043811 -87.06360779 425.94136108 -86.23435974 425.97946167 C-70.56838138 426.70397899 -54.92395934 427.64035161 -39.27879333 428.72091675 C-24.11039308 429.7665254 -8.94366445 430.66423368 6.24269104 431.40304565 C17.34589852 431.94482867 28.42538586 432.62782565 39.51051331 433.47116089 C49.57349712 434.21762108 59.64340211 434.72696347 69.72120667 435.22091675 C81.99733576 435.82261865 94.25007267 436.53821452 106.50636292 437.47091675 C117.40992131 438.27952363 128.32356008 438.8114192 139.24330139 439.34390259 C151.27175582 439.93240692 163.27665623 440.6483009 175.28175354 441.61154175 C181.94619088 442.13030523 188.53795889 442.3050995 195.22120667 442.22091675 C195.36349871 425.04462201 194.94474202 407.88999664 194.4749788 390.72208869 C194.36453422 386.66293993 194.25737797 382.60370401 194.14976501 378.54447937 C193.93927116 370.62437916 193.72575303 362.70436337 193.5110764 354.78437554 C193.33658746 348.34526499 193.16317467 341.90612627 192.99050713 335.46696663 C192.9658176 334.54630594 192.94112807 333.62564525 192.91569037 332.67708575 C192.86552133 330.80618878 192.81535407 328.93529178 192.76518857 327.06439472 C192.29625733 309.58096622 191.82379547 292.09763448 191.35015612 274.61433298 C190.9444138 259.63390808 190.5419728 244.65339735 190.14186096 229.67282104 C189.67605977 212.23277912 189.20802667 194.79279928 188.73659176 177.35290867 C188.68629822 175.4921142 188.63600828 173.63131964 188.58572197 171.77052498 C188.54861755 170.39753067 188.54861755 170.39753067 188.51076354 168.99679909 C188.33712415 162.56564848 188.16508911 156.13445611 187.99370003 149.70324516 C187.78481216 141.86623994 187.57352201 134.02930388 187.35917992 126.19244587 C187.25002085 122.19905587 187.14192443 118.20564494 187.03679085 114.21214676 C186.94035793 110.5502858 186.8407527 106.88852479 186.73871576 103.22681583 C186.68551423 101.28920714 186.63560311 99.35150896 186.58584601 97.41380876 C186.37499912 89.98712003 185.92330357 82.61754501 185.22120667 75.22091675 C184.36322849 75.18663995 183.50525032 75.15236315 182.6212728 75.11704767 C172.57384829 74.71563868 162.52643194 74.31402558 152.47901917 73.912323 C151.22425396 73.86215873 151.22425396 73.86215873 149.94413996 73.81098104 C126.33727408 72.86716827 102.730535 71.92027217 79.12396359 70.96912301 C68.86598084 70.55586098 58.6079545 70.14368256 48.34992599 69.73155785 C40.39601864 69.4119587 32.44213486 69.09178951 24.48829651 68.77047729 C-7.72107061 67.46961947 -39.93070438 66.18411254 -72.14598083 65.037323 C-73.92806128 64.97296208 -73.92806128 64.97296208 -75.74614334 64.90730095 C-79.07579626 64.7875577 -82.40553961 64.67081324 -85.7353363 64.55514526 C-86.68538418 64.52073648 -87.63543205 64.48632771 -88.61426926 64.45087624 C-95.33755357 64.22290021 -102.05194948 64.18557897 -108.77879333 64.22091675 Z " fill="#0D5899" transform="translate(150.77879333496094,19.779083251953125)"/>
<path d="M0 0 C22.89438584 -0.30724375 45.75450353 0.1562325 68.63640213 0.86972809 C70.79687723 0.93701345 72.95738072 1.00332185 75.1178894 1.06951904 C115.64237058 2.31927549 115.64237058 2.31927549 122 4 C122.78260044 14.67677526 123.13910939 25.2930439 123.09765625 36 C123.09578365 37.45686799 123.09436375 38.91373662 123.09336853 40.37060547 C123.08960946 44.14499756 123.07983849 47.91934915 123.06866455 51.69372559 C123.05830548 55.56924899 123.05384035 59.44477915 123.04882812 63.3203125 C123.03820794 70.88022865 123.02066762 78.44010342 123 86 C129.27 86 135.54 86 142 86 C142.04898438 89.02542969 142.09796875 92.05085938 142.1484375 95.16796875 C142.20264702 98.14026286 142.25987551 101.11248487 142.31738281 104.0847168 C142.35536103 106.12990817 142.39026448 108.17515928 142.421875 110.22045898 C141.8074515 133.76322205 141.8074515 133.76322205 150.5 154.80859375 C156.52798702 160.40401688 163.88276592 163.30917157 172 164 C172.15783805 157.66091192 172.15783805 157.66091192 169.515625 152.12890625 C168.91234375 151.59136719 168.3090625 151.05382812 167.6875 150.5 C158.68278482 142.45284145 157.82839382 128.43746289 157 117 C156.67905157 107.33504704 156.80372635 97.66672909 157 88 C173.35567221 87.8406915 189.65870981 88.32944176 206 89 C206.73591164 93.60316684 207.12275273 98.00986987 207.11352539 102.66967773 C207.11344986 103.95047714 207.11337433 105.23127655 207.11329651 106.55088806 C207.10819145 107.92845703 207.10297548 109.30602559 207.09765625 110.68359375 C207.0957886 112.1084844 207.09436634 113.53337569 207.09336853 114.95826721 C207.08957066 118.6884034 207.07976402 122.41849996 207.06866455 126.14862061 C207.05839141 129.96300725 207.05385832 133.77740036 207.04882812 137.59179688 C207.03813902 145.06121588 207.0210958 152.53060236 207 160 C204.56242587 160.02698422 202.12515085 160.04683099 199.6875 160.0625 C198.99720703 160.07087891 198.30691406 160.07925781 197.59570312 160.08789062 C194.4516975 160.10307906 192.00579981 160.00193327 189 159 C189 160.98 189 162.96 189 165 C194.94 164.67 200.88 164.34 207 164 C207.17376709 174.54156175 207.34060036 185.08321152 207.5 195.625 C207.51187725 196.41018257 207.5237545 197.19536514 207.53599167 198.00434113 C207.98683811 228.00513399 208.12379635 257.99557422 208 288 C200.97030237 287.76447823 193.94120831 287.51482385 186.91235352 287.25537109 C184.52151857 287.16878541 182.13056445 287.08542717 179.73950195 287.00537109 C176.30122986 286.88969091 172.86355444 286.7623834 169.42578125 286.6328125 C168.35789871 286.59938751 167.29001617 286.56596252 166.18977356 286.53152466 C165.18911362 286.49163422 164.18845367 286.45174377 163.1574707 286.41064453 C162.28032913 286.37955597 161.40318756 286.34846741 160.49946594 286.31643677 C155.2741939 285.65490817 152.13349013 283.50115201 148.375 279.9375 C144.84008683 276.65957606 141.25370525 273.52529503 137.5 270.5 C133.03435293 266.8873417 128.76715385 263.11106455 124.5234375 259.2421875 C121.94917642 256.95484096 119.30710511 254.78451729 116.625 252.625 C112.06898641 248.94168761 107.75922509 245.06847694 103.47436523 241.07983398 C100.30684144 238.14879145 97.05920397 235.37986806 93.6875 232.6875 C87.6511113 227.83214387 82.07049048 222.53235955 76.4375 217.22265625 C73.35960942 214.32430929 70.21519825 211.52046357 67.01171875 208.76171875 C64.3437331 206.4252886 61.73485446 204.02583749 59.125 201.625 C53.04662443 196.03403684 46.92721029 190.49009471 40.75390625 185.00390625 C35.1940944 180.04414155 29.7418226 174.9770085 24.3125 169.875 C23.24310181 168.87134399 23.24310181 168.87134399 22.15209961 167.84741211 C18.26130819 164.18083732 14.42788939 160.47954035 10.7277832 156.61962891 C9.05363507 154.94570837 9.05363507 154.94570837 7.03979492 153.77490234 C4.82030212 152.33920757 3.4865769 151.19966759 2 149 C0.92208844 143.85686986 1.0735483 138.72686337 1.125 133.5 C1.11553968 131.82997341 1.10245377 130.15996434 1.08618164 128.48999023 C1.05256093 124.61676558 1.03824533 120.74396788 1.03271484 116.87060547 C1.00936343 108.99711654 0.87375678 101.12605285 0.73828125 93.25390625 C0.68749976 90.25212265 0.6372061 87.25033107 0.5871582 84.24853516 C0.56827876 83.11662561 0.56827876 83.11662561 0.54901791 81.96184921 C0.0982074 54.64199959 -0.16930835 27.32376305 0 0 Z " fill="#2A7DC7" transform="translate(101,115)"/>
<path d="M0 0 C0.76391412 0.01055676 1.52782824 0.02111351 2.31489128 0.03199017 C4.95108858 0.07624615 7.58570686 0.14599887 10.22120667 0.22091675 C11.19613233 0.24691499 12.17105799 0.27291324 13.17552686 0.29969931 C21.36297878 0.52533871 29.54788484 0.8145644 37.73316956 1.10714722 C40.46993496 1.2030136 43.20673234 1.29795418 45.94352722 1.39297485 C53.32518546 1.64997033 60.70667262 1.91165837 68.08813024 2.17434454 C72.70450372 2.33860203 77.3209132 2.50183178 81.93733025 2.66485977 C94.74646702 3.11736004 107.55556589 3.5708964 120.36451054 4.02880669 C121.18057784 4.05797967 121.99664515 4.08715266 122.83744177 4.11720968 C124.49130406 4.17633644 126.14516633 4.23546376 127.79902858 4.29459165 C128.61985858 4.32393616 129.44068858 4.35328067 130.28639221 4.3835144 C131.10823391 4.41289593 131.93007561 4.44227746 132.77682161 4.47254933 C146.12598863 4.9495873 159.47541791 5.41881237 172.82497949 5.88466524 C186.56564061 6.36427104 200.30606775 6.85015782 214.04628175 7.34241021 C221.74743418 7.61816845 229.44865962 7.89128236 237.15014839 8.15749741 C243.6977692 8.38386208 250.24515355 8.61600177 256.79230357 8.85561191 C260.12904089 8.97755925 263.46580103 9.09591485 266.80286598 9.20875168 C270.42494652 9.33166966 274.04650555 9.4649326 277.66812134 9.60076904 C278.71520218 9.63385284 279.76228303 9.66693664 280.8410936 9.70102298 C289.90598218 10.06054903 297.7198532 10.40997502 304.22120667 17.22091675 C309.27903756 25.243683 308.54174885 35.12313379 308.94888306 44.30485535 C309.01545577 45.75001125 309.08232442 47.19515355 309.14946264 48.64028329 C309.33269064 52.60293506 309.51168075 56.56576856 309.68996012 60.52864563 C309.88314352 64.80645554 310.08024001 69.08408542 310.27682495 73.36174011 C310.66127882 81.74144474 311.04203228 90.12131359 311.42143375 98.50124834 C311.73013187 105.3182953 312.04010932 112.13528296 312.35099602 118.95223045 C312.39526631 119.92301217 312.4395366 120.89379388 312.48514841 121.89399322 C312.57509674 123.86634342 312.66504721 125.83869352 312.75499981 127.81104352 C313.59860521 146.31205716 314.43793209 164.81326305 315.27586948 183.31453415 C315.99373118 199.16215487 316.71554627 215.00959157 317.44020081 230.85690308 C318.28242219 249.27526388 319.12193305 267.69374518 319.95734972 286.11241597 C320.04663979 288.08082072 320.13593423 290.04922527 320.22523308 292.01762962 C320.26916385 292.98599871 320.31309463 293.95436779 320.35835664 294.95208139 C320.66689819 301.7490482 320.97737565 308.54592497 321.28863716 315.34276772 C321.66873989 323.64378682 322.04591579 331.94493287 322.41943652 340.24625085 C322.60980155 344.47535738 322.80142514 348.70439611 322.99665833 352.93328094 C323.44654034 362.69451626 323.86164106 372.45590305 324.22120667 382.22091675 C324.26226681 383.23772136 324.30332696 384.25452598 324.34563136 385.30214286 C324.4413708 387.84278227 324.50914137 390.38188437 324.56201172 392.92372131 C324.59530799 394.2041289 324.62860426 395.4845365 324.66290951 396.80374432 C324.02064373 401.77254391 321.9748265 405.41236774 318.45191956 409.04562378 C313.14938118 412.85560107 307.66216077 415.55509748 301.65870667 418.09591675 C300.5949884 418.55514526 299.53127014 419.01437378 298.43531799 419.48751831 C285.98529198 424.82286939 273.43453175 429.92240398 260.89294434 435.03770447 C253.30696362 438.13208913 245.73027449 441.2467582 238.17042542 444.4045105 C237.35955978 444.7432016 236.54869415 445.0818927 235.71325684 445.43084717 C231.16238915 447.33305943 226.61331031 449.2394872 222.06616211 451.15057373 C220.69342607 451.72266589 219.31790743 452.28812972 217.93960571 452.84667969 C214.94467282 454.06056393 212.06812093 455.30027532 209.19483948 456.7897644 C201.93045109 460.30350434 196.01348074 460.40099748 188.07437134 459.94830322 C186.98018829 459.89493848 185.88600525 459.84157374 184.75866514 459.78659189 C181.24536066 459.61107657 177.73338524 459.41759351 174.22120667 459.22091675 C171.96224846 459.09979247 169.70328586 458.97875034 167.44431877 458.8577919 C160.13873874 458.45856089 152.83516883 458.02718072 145.5315094 457.5944519 C142.75268439 457.4312714 139.97382041 457.26875814 137.19496155 457.1061554 C128.95740395 456.62349315 120.72012292 456.13620426 112.48289523 455.64794832 C110.15185139 455.50980448 107.82080051 455.37178004 105.48974729 455.23379469 C90.95519558 454.37339613 76.42073986 453.51139408 61.88656521 452.6446476 C58.54572099 452.44544108 55.20487576 452.24625149 51.86402893 452.04708862 C51.03392097 451.9976006 50.20381301 451.94811259 49.34855027 451.89712493 C35.84421761 451.09233257 22.33929631 450.29788642 8.83411085 449.50754769 C-5.07999544 448.69310025 -18.99351641 447.86919054 -32.90651745 447.03607213 C-40.69953286 446.56966375 -48.49274623 446.10741766 -56.28663826 445.65587234 C-62.90656089 445.27232203 -69.52590866 444.88024793 -76.14466316 444.47702123 C-79.51759428 444.27179975 -82.89061292 444.07200271 -86.26436424 443.88045692 C-89.92412022 443.67201881 -93.58261556 443.4481219 -97.24121094 443.22033691 C-98.30199358 443.16361144 -99.36277622 443.10688596 -100.45570379 443.04844153 C-107.52460997 442.58563785 -114.68868109 441.96216107 -119.65379333 436.34591675 C-122.67759911 431.89914355 -124.01842455 428.39742935 -124.0887146 423.02059937 C-124.11582551 421.47568062 -124.11582551 421.47568062 -124.14348412 419.89955139 C-124.1532509 418.77776993 -124.16301769 417.65598846 -124.17308044 416.50021362 C-124.19093409 415.30809769 -124.20878773 414.11598175 -124.22718239 412.88774109 C-124.27412187 409.5987046 -124.31221399 406.30970995 -124.34610105 403.02051735 C-124.37654807 400.20921065 -124.41400954 397.39801435 -124.45144957 394.58679342 C-124.57150227 385.55345982 -124.6680847 376.51995144 -124.75659466 367.48625946 C-124.77836358 365.26477281 -124.80051051 363.04329019 -124.82271576 360.82180786 C-125.04805858 338.12185947 -125.20505767 315.42155466 -125.34129333 292.72091675 C-125.34622409 291.90555293 -125.35115485 291.09018911 -125.35623503 290.2501173 C-125.50326939 265.93303089 -125.62906008 241.61586925 -125.74108392 217.29859769 C-125.77032608 210.97244495 -125.80124864 204.64630177 -125.83274841 198.32015991 C-125.92957179 178.7251529 -126.01090526 159.1302223 -126.0536108 139.53501511 C-126.07212538 131.12319879 -126.09652245 122.71151204 -126.13795471 114.29977417 C-126.17288575 107.18266446 -126.19396275 100.06568465 -126.19672048 92.94848669 C-126.19849054 89.32272955 -126.20665364 85.69728808 -126.23212433 82.07161331 C-126.25948219 78.1435838 -126.25569835 74.21593807 -126.24876404 70.28781128 C-126.26157693 69.14213936 -126.27438982 67.99646744 -126.28759098 66.81607819 C-126.23474971 58.80638197 -124.93855539 55.51513676 -119.39207458 49.7326355 C-114.26626555 45.72466366 -107.91690989 43.54554166 -101.96629333 41.03341675 C-100.55605321 40.42901044 -99.14631662 39.82342812 -97.73704529 39.21676636 C-95.48152288 38.2460809 -93.22564753 37.27629696 -90.96817017 36.31016541 C-83.50514124 33.11527157 -76.0764779 29.84426274 -68.6493988 26.56686401 C-65.1856125 25.03878071 -61.71849511 23.51868549 -58.24803162 22.00582886 C-50.60852318 18.67412877 -42.97854714 15.33283734 -35.41098022 11.84010315 C-32.29822102 10.40790124 -29.17422324 9.00137463 -26.04823303 7.59832764 C-24.60953967 6.94486081 -23.17604681 6.27978275 -21.74885559 5.6015625 C-21.07964081 5.28395966 -20.41042603 4.96635681 -19.72093201 4.63912964 C-19.14542099 4.36138199 -18.56990997 4.08363434 -17.97695923 3.79747009 C-11.83219381 1.23488666 -6.67819673 -0.18344713 0 0 Z M-28.98590088 28.41304016 C-35.26888845 31.49362048 -41.65908034 34.29610686 -48.08308411 37.06768799 C-51.37801732 38.49140797 -54.66571812 39.93166731 -57.95457458 41.36935425 C-59.35899708 41.98239507 -60.76345797 42.59534794 -62.16795349 43.20822144 C-70.2503384 46.73598869 -78.33135391 50.26685776 -86.4092865 53.80480957 C-88.27616354 54.62192854 -90.14343098 55.43815616 -92.01109314 56.253479 C-94.62080734 57.39281283 -97.22923621 58.53504091 -99.83738708 59.677948 C-101.02246101 60.19411179 -101.02246101 60.19411179 -102.23147583 60.72070312 C-105.75435715 62.07633696 -105.75435715 62.07633696 -108.77879333 64.22091675 C-108.87501713 66.98142374 -108.90428875 69.71649148 -108.89183044 72.47737122 C-108.89163721 73.36280094 -108.89144398 74.24823066 -108.89124489 75.16049159 C-108.88891122 78.18448923 -108.87888307 81.20841077 -108.86863708 84.23239136 C-108.86457469 86.42579832 -108.86075187 88.61920573 -108.85714722 90.81261349 C-108.79663009 120.03745734 -108.5877455 149.26206795 -108.3917076 178.48624874 C-108.33445404 187.03008115 -108.27908765 195.57392554 -108.22378695 204.11777078 C-108.12519875 219.34218382 -108.02521691 234.56658734 -107.92430115 249.79098511 C-107.82653742 264.54032916 -107.72946584 279.28967751 -107.63328552 294.03903198 C-107.62731153 294.95511416 -107.62133754 295.87119633 -107.61518252 296.81503857 C-107.5852034 301.41282357 -107.55523747 306.01060866 -107.52527809 310.60839379 C-107.27849291 348.4792483 -107.02942197 386.35008749 -106.77879333 424.22091675 C-102.24084726 425.01212076 -97.84867166 425.4425531 -93.24363708 425.65060425 C-91.72019478 425.72276846 -90.19675752 425.79503932 -88.67332458 425.86740112 C-87.86846619 425.9043811 -87.06360779 425.94136108 -86.23435974 425.97946167 C-70.56838138 426.70397899 -54.92395934 427.64035161 -39.27879333 428.72091675 C-24.11039308 429.7665254 -8.94366445 430.66423368 6.24269104 431.40304565 C17.34589852 431.94482867 28.42538586 432.62782565 39.51051331 433.47116089 C49.57349712 434.21762108 59.64340211 434.72696347 69.72120667 435.22091675 C81.99733576 435.82261865 94.25007267 436.53821452 106.50636292 437.47091675 C117.41057867 438.27957238 128.32489096 438.81181081 139.24531555 439.34390259 C151.21489418 439.92897068 163.16075207 440.63817449 175.10597229 441.61154175 C177.14435657 441.77121304 179.18420428 441.91331311 181.22511292 442.03659058 C183.22565423 442.15966821 185.22397618 442.32640692 187.21730042 442.53610229 C197.90842486 443.23959846 206.41524868 439.0031646 215.97120667 434.78341675 C217.76841181 434.01061751 219.5666941 433.240319 221.36598206 432.47238159 C225.10787482 430.87316458 228.84491331 429.26329427 232.57911682 427.64620972 C240.69809032 424.14184476 248.87782694 420.78521627 257.05482483 417.41912842 C269.63072649 412.2358654 282.18632345 407.00258305 294.72120667 401.72091675 C295.79555969 401.26990601 296.86991272 400.81889526 297.9768219 400.35421753 C298.93403137 399.94929077 299.89124084 399.54436401 300.87745667 399.12716675 C302.11205627 398.60606323 302.11205627 398.60606323 303.37159729 398.07443237 C305.19515355 397.36222593 305.19515355 397.36222593 306.22120667 396.22091675 C306.32640018 394.68018684 306.36066673 393.13455687 306.36671352 391.59025192 C306.37066083 390.59095823 306.37460813 389.59166453 306.37867504 388.5620892 C306.37540784 387.45617893 306.37214063 386.35026865 306.36877441 385.21084595 C306.36522018 383.46822137 306.36522018 383.46822137 306.36159414 381.69039226 C306.2773287 367.67203276 305.62849521 353.67858148 304.96772087 339.67833662 C304.78132958 335.70050099 304.60196493 331.72234686 304.42164612 327.74423218 C304.06924375 319.99309533 303.71062764 312.24225852 303.34981508 304.49150911 C302.9288266 295.44245057 302.51437233 286.39309606 302.10016941 277.34372482 C301.36071942 261.19286578 300.61574082 245.04226669 299.8674469 228.89181519 C299.14303108 213.25656782 298.42213518 197.6211637 297.70533752 181.98556519 C297.66109799 181.02057709 297.61685846 180.055589 297.57127834 179.06135884 C297.4821447 177.11704316 297.39301169 175.17272745 297.30387932 173.22841172 C297.25990027 172.26906754 297.21592122 171.30972335 297.17060947 170.32130814 C297.12673553 169.36422182 297.08286159 168.4071355 297.03765813 167.42104657 C296.35165076 152.45872113 295.66285113 137.49652406 294.97359904 122.53434779 C294.76604704 118.02855876 294.55863459 113.5227634 294.35153699 109.01695347 C293.91675246 99.55752485 293.48103298 90.09814137 293.04216117 80.63890138 C292.86092594 76.73231137 292.68021459 72.82569925 292.50104332 68.91901398 C292.33661621 65.33435988 292.17050736 61.74978758 292.00312256 58.16527042 C291.91521592 56.27410794 291.82900668 54.3828668 291.7428847 52.49162221 C291.36225318 44.39090733 290.83280413 36.30740466 290.22120667 28.22091675 C277.3908867 27.17291133 264.55260016 26.73391211 251.68995667 26.28341675 C249.28992629 26.19772745 246.88990199 26.11186782 244.48988342 26.02584839 C239.46027498 25.84612731 234.43060956 25.66812656 229.40089417 25.49142456 C223.07440855 25.26907966 216.74806302 25.04301264 210.42175293 24.81573486 C174.40953223 23.52020942 174.40953223 23.52020942 138.38710022 22.56246948 C130.52866122 22.38423262 122.69704002 22.05106509 114.85067558 21.5905304 C107.57392838 21.16841119 100.29628588 20.92542836 93.01026917 20.72091675 C91.62333003 20.68013026 90.23639782 20.63910816 88.84947205 20.59786987 C85.24044802 20.49105902 81.63135439 20.3868462 78.02223206 20.28341675 C60.92745185 19.79241891 43.83266361 19.2960347 26.74073792 18.71310425 C25.61821625 18.67660767 24.49569458 18.64011108 23.3391571 18.60250854 C17.6980215 18.40438735 12.10149378 18.09166502 6.48545837 17.51696777 C-6.53722849 16.50525336 -17.63844738 22.8388856 -28.98590088 28.41304016 Z " fill="#FEFEFE" transform="translate(150.77879333496094,19.779083251953125)"/>
<path d="M0 0 C20.796522 -0.12227388 41.54277744 0.18214171 62.32751465 0.86883545 C65.17448685 0.96148352 68.02161968 1.04854454 70.86876488 1.13568687 C109.6677713 2.32674583 109.6677713 2.32674583 116 4 C116.78260044 14.67677526 117.13910939 25.2930439 117.09765625 36 C117.09578365 37.45686799 117.09436375 38.91373662 117.09336853 40.37060547 C117.08960946 44.14499756 117.07983849 47.91934915 117.06866455 51.69372559 C117.05830548 55.56924899 117.05384035 59.44477915 117.04882812 63.3203125 C117.03820794 70.88022865 117.02066762 78.44010342 117 86 C123.27 86 129.54 86 136 86 C136.04898438 89.02542969 136.09796875 92.05085938 136.1484375 95.16796875 C136.20264702 98.14026286 136.25987551 101.11248487 136.31738281 104.0847168 C136.35536103 106.12990817 136.39026448 108.17515928 136.421875 110.22045898 C135.8074515 133.76322205 135.8074515 133.76322205 144.5 154.80859375 C150.52798702 160.40401688 157.88276592 163.30917157 166 164 C166.15783805 157.66091192 166.15783805 157.66091192 163.515625 152.12890625 C162.91234375 151.59136719 162.3090625 151.05382812 161.6875 150.5 C152.68278482 142.45284145 151.82839382 128.43746289 151 117 C150.67905157 107.33504704 150.80372635 97.66672909 151 88 C167.35567221 87.8406915 183.65870981 88.32944176 200 89 C200.73591164 93.60316684 201.12275273 98.00986987 201.11352539 102.66967773 C201.11344986 103.95047714 201.11337433 105.23127655 201.11329651 106.55088806 C201.10819145 107.92845703 201.10297548 109.30602559 201.09765625 110.68359375 C201.0957886 112.1084844 201.09436634 113.53337569 201.09336853 114.95826721 C201.08957066 118.6884034 201.07976402 122.41849996 201.06866455 126.14862061 C201.05839141 129.96300725 201.05385832 133.77740036 201.04882812 137.59179688 C201.03813902 145.06121588 201.0210958 152.53060236 201 160 C198.56242587 160.02698422 196.12515085 160.04683099 193.6875 160.0625 C192.99720703 160.07087891 192.30691406 160.07925781 191.59570312 160.08789062 C188.4516975 160.10307906 186.00579981 160.00193327 183 159 C183 160.98 183 162.96 183 165 C188.94 164.67 194.88 164.34 201 164 C201.17331579 174.60406861 201.34017444 185.20821975 201.5 195.8125 C201.51187725 196.60025063 201.5237545 197.38800125 201.53599167 198.19962311 C201.96957782 227.13512677 202.12860925 256.06094098 202 285 C192.66585399 284.68762301 183.33278295 284.35062112 174 284 C172.95763184 283.96261719 171.91526367 283.92523438 170.84130859 283.88671875 C168.18532782 283.78880241 165.53025355 283.67826684 162.875 283.5625 C161.70553833 283.52201538 161.70553833 283.52201538 160.51245117 283.48071289 C155.23002772 283.23002772 155.23002772 283.23002772 153 281 C152.7215271 278.47161865 152.7215271 278.47161865 152.68115234 275.22558594 C152.66128769 274.00580551 152.64142303 272.78602509 152.62095642 271.52928162 C152.60904367 270.18098151 152.59737793 268.8326792 152.5859375 267.484375 C152.56712987 266.08694884 152.5475069 264.68953345 152.52711487 263.29212952 C152.47514464 259.55045638 152.4356792 255.80874786 152.39890671 252.06689835 C152.36717049 248.99120957 152.32819279 245.91563099 152.28913784 242.84002781 C152.00725151 220.56067072 151.85419639 198.28103509 152 176 C151.26354248 176.00507568 150.52708496 176.01015137 149.76831055 176.01538086 C142.76936525 176.04266177 135.80307716 175.89491211 128.8125 175.5625 C127.89275391 175.52318359 126.97300781 175.48386719 126.02539062 175.44335938 C125.11595703 175.40146484 124.20652344 175.35957031 123.26953125 175.31640625 C122.07227417 175.26141968 122.07227417 175.26141968 120.85083008 175.20532227 C116.89043248 174.92008681 112.94637033 174.43848559 109 174 C109.33 162.45 109.66 150.9 110 139 C113.465 138.01 113.465 138.01 117 137 C117 130.4 117 123.8 117 117 C115.185 117.04125 113.37 117.0825 111.5 117.125 C103.55549379 117.14251821 95.84597051 116.12804711 88 115 C88.02578125 116.04027344 88.0515625 117.08054687 88.078125 118.15234375 C87.90379937 126.73788095 85.4393542 134.5606458 79.3125 140.6875 C74.92313887 143.17875902 70.06640823 145 65 145 C67 139 67 139 67.73046875 137.16015625 C70.55842266 129.68115123 71.17627949 121.8980261 72 114 C71.41250977 113.98541748 70.82501953 113.97083496 70.21972656 113.95581055 C47.10154576 113.3364954 24.06234353 111.65766929 1 110 C1 105.71 1 101.42 1 97 C2.73765625 97.144375 4.4753125 97.28875 6.265625 97.4375 C8.59372982 97.62525039 10.92185599 97.81273624 13.25 98 C14.38953125 98.09539062 15.5290625 98.19078125 16.703125 98.2890625 C20.13398437 98.56197177 23.56477998 98.78957913 27 99 C28.02512695 99.07863281 29.05025391 99.15726562 30.10644531 99.23828125 C38.17114551 99.60737508 44.03661029 97.45272211 51.25 94 C52.29285156 93.52304688 53.33570313 93.04609375 54.41015625 92.5546875 C56.95012532 91.38956407 59.47871524 90.20488443 62 89 C58.54073079 86.19177303 56.74282314 85.65204203 52.25 85.8125 C51.26515625 85.83957031 50.2803125 85.86664063 49.265625 85.89453125 C48.14414063 85.94673828 48.14414063 85.94673828 47 86 C49.30587304 83.69412696 50.77098633 83.31712405 53.875 82.4375 C54.73867187 82.18871094 55.60234375 81.93992187 56.4921875 81.68359375 C57.73355469 81.34521484 57.73355469 81.34521484 59 81 C59.65226562 80.80921875 60.30453125 80.6184375 60.9765625 80.421875 C63.5131087 79.89301981 65.90981109 79.83028976 68.5 79.8125 C69.4384375 79.79832031 70.376875 79.78414063 71.34375 79.76953125 C74 80 74 80 76.03125 81.07421875 C78.74283708 82.34931029 80.15892942 81.83205861 83 81 C84.74331052 80.34919892 86.47313221 79.66111364 88.1875 78.9375 C92.78647687 77 92.78647687 77 95 77 C95.02468447 72.19450253 95.04285255 67.38904182 95.05493164 62.58349609 C95.05996621 60.94807289 95.06679427 59.3126542 95.07543945 57.67724609 C95.08754335 55.32909025 95.093237 52.98099381 95.09765625 50.6328125 C95.10281754 49.89942657 95.10797882 49.16604065 95.11329651 48.41043091 C95.183156 44.57877344 95.183156 44.57877344 94 41 C93.58953933 34.61371486 94.18338596 28.32875879 95 22 C94.02877197 22.01595215 93.05754395 22.0319043 92.05688477 22.04833984 C79.96662004 22.18209884 67.99343115 21.47195386 55.9375 20.625 C53.91589558 20.4872461 51.89424777 20.35012743 49.87255859 20.21362305 C45.83368781 19.94072146 41.79497623 19.66562103 37.75634766 19.38916016 C29.54796703 18.83049787 21.33672772 18.31912567 13.125 17.8125 C11.76423805 17.72808345 10.40347946 17.6436128 9.04272461 17.55908203 C6.02852222 17.37208929 3.01426808 17.1859309 0 17 C0 11.39 0 5.78 0 0 Z " fill="#BCC4E4" transform="translate(107,115)"/>
<path d="M0 0 C3.01190136 0.18026001 6.01954516 0.28349746 9.03552246 0.37127686 C14.72240789 0.53821796 20.40683711 0.7452873 26.09185791 0.96627808 C32.26060453 1.2058781 38.42978148 1.43372205 44.59899902 1.66082764 C45.81928802 1.70588943 47.03957703 1.75095123 48.29684448 1.79737854 C60.38466309 2.23738779 72.4743748 2.56396422 84.56726074 2.82659912 C91.40595166 2.98126267 98.2239701 3.22777056 105.05212402 3.64129639 C116.55531391 4.32784785 128.07136516 4.60319953 139.58935547 4.92745972 C146.80375739 5.13085482 154.01780901 5.34612648 161.23181152 5.56317139 C161.99785202 5.5862052 162.76389252 5.60923901 163.55314636 5.63297081 C183.45985213 6.23399505 203.36336329 6.92596018 223.26657867 7.63211823 C226.05279313 7.73061144 228.83904267 7.82804723 231.62530518 7.9251709 C236.05202775 8.07962281 240.47864704 8.23676484 244.90520096 8.39597511 C246.5335872 8.45420935 248.1620019 8.51165484 249.79044724 8.56821251 C259.48667583 8.90601106 269.14428082 9.39983064 278.81774902 10.16864014 C278.48774902 11.48864014 278.15774902 12.80864014 277.81774902 14.16864014 C277.81774902 13.17864014 277.81774902 12.18864014 277.81774902 11.16864014 C277.15807129 11.47865967 276.49839355 11.7886792 275.81872559 12.10809326 C259.9299195 19.56156528 243.98249917 26.87025963 227.9041748 33.90692139 C220.66724762 37.08099373 213.46999935 40.30282425 206.3586731 43.75097656 C203.03410613 45.35987664 199.69509415 46.93752819 196.3550415 48.51397705 C194.78223221 49.2668148 193.21634298 50.0343377 191.65887451 50.81842041 C190.92449158 51.18761597 190.19010864 51.55681152 189.43347168 51.93719482 C188.48439438 52.42334259 188.48439438 52.42334259 187.5161438 52.91931152 C180.45045495 56.00484868 174.43475665 57.65326358 166.70568848 57.45501709 C165.31748854 57.4371186 165.31748854 57.4371186 163.90124416 57.41885853 C160.53892049 57.36217633 157.17903606 57.26964162 153.81774902 57.16864014 C153.15874131 57.1488968 152.4997336 57.12915347 151.82075596 57.10881186 C140.28982785 56.75800744 128.76280312 56.31020614 117.23565221 55.85393119 C112.4134838 55.66401543 107.59112319 55.47910245 102.76878357 55.29359436 C93.57743015 54.93929386 84.38624744 54.58075325 75.19512218 54.22058755 C64.04277396 53.78375187 52.89022765 53.35206659 41.7376709 52.92059326 C29.79210135 52.45834121 17.84655907 51.99543521 5.90115356 51.52896118 C-12.57131281 50.80804439 -31.04397444 50.09446919 -49.51780164 49.40919673 C-52.32240906 49.3050895 -55.12700281 49.20062177 -57.93159199 49.09602451 C-59.75160016 49.0281707 -61.57160844 48.9603196 -63.39161682 48.89247131 C-64.27713331 48.85945217 -65.16264979 48.82643302 -66.07500011 48.79241329 C-71.22363717 48.60072094 -76.37236337 48.41169474 -81.52117395 48.22472429 C-84.66959928 48.10981595 -87.81793232 47.99251525 -90.96624637 47.87460113 C-92.40450661 47.82125616 -93.84280511 47.76893031 -95.28114438 47.71776032 C-103.27824858 47.43286439 -111.22232827 47.00259931 -119.18225098 46.16864014 C-115.59692704 43.36410825 -111.86958186 41.56555972 -107.70178223 39.78973389 C-106.95294769 39.4654541 -106.20411316 39.14117432 -105.43258667 38.80706787 C-103.80753391 38.10404603 -102.18143297 37.40344323 -100.55441284 36.70498657 C-97.06656189 35.20767451 -93.58373617 33.69883314 -90.10047913 32.19087219 C-88.26956242 31.39844864 -86.4383707 30.60666022 -84.60691833 29.81547546 C-75.38553629 25.83084698 -66.18520413 21.79879341 -56.98873901 17.75704956 C-54.44853183 16.64076024 -51.90784994 15.52555801 -49.36706543 14.4105835 C-48.16345619 13.88108849 -48.16345619 13.88108849 -46.93553162 13.34089661 C-45.3451449 12.64369628 -43.75275502 11.95104654 -42.15834045 11.2631073 C-38.2672443 9.57552179 -34.45317588 7.8195224 -30.68859863 5.86444092 C-20.12726035 0.49989422 -11.76810554 -0.75145864 0 0 Z " fill="#1371C3" transform="translate(162.1822509765625,37.83135986328125)"/>
<path d="M0 0 C9.67432665 0.58368851 19.33813165 1.23144229 29 2 C29 8.6 29 15.2 29 22 C26.69 22.66 24.38 23.32 22 24 C22.00523682 24.70495605 22.01047363 25.40991211 22.01586914 26.13623047 C22.03687271 29.38247763 22.04973369 32.6287104 22.0625 35.875 C22.07087891 36.98359375 22.07925781 38.0921875 22.08789062 39.234375 C22.10746751 45.89051489 21.82879778 52.3939117 21 59 C22.31436035 59.03758423 22.31436035 59.03758423 23.65527344 59.07592773 C26.96541788 59.17214272 30.27544921 59.27129448 33.58544922 59.37231445 C35.00696476 59.41512346 36.42851415 59.45682527 37.85009766 59.49731445 C46.59280062 59.74719411 55.29024512 60.1561519 64 61 C64.91983039 85.45868146 65.09038115 109.90231817 65.0625 134.375 C65.06164398 135.13168724 65.06078796 135.88837448 65.05990601 136.66799164 C65.04843582 146.11201871 65.02824551 155.55600776 65 165 C63.73635358 164.06000595 62.4737892 163.11855721 61.21166992 162.17651367 C60.50846115 161.65240402 59.80525238 161.12829437 59.08073425 160.58830261 C56.05495815 158.27861406 53.18166828 155.81210328 50.3125 153.3125 C49.09016994 152.25613286 47.86750619 151.20015173 46.64453125 150.14453125 C46.03561035 149.61811035 45.42668945 149.09168945 44.79931641 148.54931641 C42.04863813 146.18082193 39.27482084 143.84011307 36.5 141.5 C34.33244313 139.66771747 32.16596679 137.83416182 30 136 C29.42749512 135.5153125 28.85499023 135.030625 28.26513672 134.53125 C21.49716486 128.79257776 14.83477959 122.9761045 8.33227539 116.93798828 C4.25258 113.1738984 -0.00878272 109.67825035 -4.328125 106.1953125 C-10.52085755 101.10713167 -16.33581333 95.66418667 -22 90 C-23.16004635 88.97164973 -24.32762607 87.95177371 -25.5 86.9375 C-29.7836737 83.2298506 -33.93649025 79.3896252 -38.08007812 75.52709961 C-40.97660327 72.8356104 -43.90814361 70.1971313 -46.89453125 67.60546875 C-51.09495893 63.94703173 -55.14739249 60.14627815 -59.1875 56.3125 C-65.02051035 50.79705896 -70.87711427 45.31105845 -76.80151367 39.89379883 C-78.20809736 38.60355089 -79.60428768 37.30200021 -81 36 C-81.94359375 35.33355469 -82.8871875 34.66710937 -83.859375 33.98046875 C-87.34050235 29.13357064 -86.38055657 23.77600309 -86 18 C-78.88309474 18.54871016 -71.76642281 19.10037455 -64.64990234 19.65405273 C-62.23100928 19.84190122 -59.8120644 20.02908377 -57.39306641 20.21557617 C-53.90773772 20.48439523 -50.42260496 20.75564148 -46.9375 21.02734375 C-45.86322754 21.10967758 -44.78895508 21.19201141 -43.68212891 21.27684021 C-39.24381595 21.6248208 -34.83816768 21.99764674 -30.4296875 22.62329102 C-26.79645862 23.02235652 -25.24615919 22.48395849 -22 21 C-20.515 21.495 -20.515 21.495 -19 22 C-20.32 24.64 -21.64 27.28 -23 30 C-20.74199973 29.29060152 -18.49577852 28.55886489 -16.25 27.8125 C-14.99703125 27.40644531 -13.7440625 27.00039063 -12.453125 26.58203125 C-7.39535558 24.26484051 -5.63919369 21.40130925 -3.375 16.4375 C-1.50793493 11.12197595 -0.7875186 5.55895484 0 0 Z " fill="#1B6DB4" transform="translate(195,230)"/>
<path d="M0 0 C9.40044545 0 18.5745904 0.17550591 27.921875 0.83984375 C29.18791565 0.92625626 30.4539563 1.01266876 31.75836182 1.10169983 C34.41054266 1.28359411 37.06252768 1.46719465 39.71435547 1.65405273 C43.08465235 1.89149827 46.45530146 2.12338731 49.82612228 2.3532629 C53.08734533 2.57595223 56.34836081 2.80161946 59.609375 3.02734375 C60.80439636 3.10967758 61.99941772 3.19201141 63.23065186 3.27684021 C82.64504424 4.64504424 82.64504424 4.64504424 84 6 C84.09500548 8.46444057 84.12557985 10.90074626 84.11352539 13.36547852 C84.11367142 14.13615662 84.11381744 14.90683472 84.1139679 15.7008667 C84.1132686 18.26024139 84.10547545 20.8195442 84.09765625 23.37890625 C84.09579213 25.14867615 84.0943682 26.91844656 84.09336853 28.68821716 C84.08954288 33.35551366 84.0797122 38.02277923 84.06866455 42.69006348 C84.05845144 47.44897035 84.05387113 52.20788221 84.04882812 56.96679688 C84.03808997 66.31121153 84.02101299 75.6556032 84 85 C79.58854528 85.01473243 75.17709704 85.02347648 70.765625 85.03125 C69.53279785 85.03543945 68.2999707 85.03962891 67.02978516 85.04394531 C56.32793415 85.05803597 45.68012087 84.64728005 35 84 C33.60140348 116.28261269 33.60140348 116.28261269 44.8125 144.79296875 C45.451875 145.35628906 46.09125 145.91960937 46.75 146.5 C49.11093315 148.59916658 49.91452665 149.49533562 50.44921875 152.65234375 C50.43875494 155.1392434 50.31258627 157.53404168 50 160 C42.69517918 160.99611193 37.0974672 157.80773682 31 154 C24.57082543 148.97680794 21.90041601 140.96007484 20.71029663 133.0823822 C20.01492441 127.20155246 19.86899949 121.41383747 19.90234375 115.49609375 C19.9037587 114.5322023 19.90517365 113.56831085 19.90663147 112.57521057 C19.91218058 109.52927402 19.92472331 106.48341393 19.9375 103.4375 C19.94252159 101.35872503 19.94708334 99.27994889 19.95117188 97.20117188 C19.9612778 92.1340622 19.98086276 87.0671156 20 82 C13.73 82 7.46 82 1 82 C0.67 54.94 0.34 27.88 0 0 Z " fill="#1D82DC" transform="translate(223,119)"/>
<path d="M0 0 C1.1098776 18.93394082 2.12899506 37.87131757 2.99127197 56.81826782 C3.07935378 58.7492937 3.16863827 60.68026514 3.25921631 62.61117554 C3.79499149 74.08463239 4.12835788 85.5129884 4 97 C2.97761986 97.43768707 2.97761986 97.43768707 1.93458557 97.88421631 C-4.52326355 100.64899042 -10.98085655 103.41436169 -17.43817043 106.18038559 C-20.75706301 107.6020261 -24.07605037 109.0234444 -27.39526367 110.44433594 C-30.6050447 111.81839166 -33.81456453 113.19305582 -37.02391243 114.56812286 C-38.82984653 115.34170648 -40.63604298 116.11467756 -42.44224548 116.88763428 C-43.56272781 117.3678302 -44.68321014 117.84802612 -45.83764648 118.34277344 C-46.89353973 118.79422729 -47.94943298 119.24568115 -49.037323 119.71081543 C-52.42306152 121.18409175 -55.77065445 122.73141339 -59.10218811 124.32330322 C-61 125 -61 125 -65 125 C-65.39664007 115.73177994 -65.78811595 106.46335894 -66.17345428 97.19466209 C-66.35264074 92.88829448 -66.53343818 88.58200856 -66.71826172 84.27587891 C-67.50819804 65.84556237 -68.28096353 47.45253972 -68 29 C-53.06774257 22.06286543 -38.0495868 15.34746043 -22.95507812 8.77294922 C-22.29970062 8.4874823 -21.64432312 8.20201538 -20.96908569 7.90789795 C-19.69766651 7.35467782 -18.42588692 6.80228511 -17.15371704 6.25079346 C-12.9850434 4.44124895 -8.84578651 2.57567355 -4.73217773 0.64428711 C-3 0 -3 0 0 0 Z " fill="#0873CF" transform="translate(426,121)"/>
<path d="M0 0 C13.24836756 -0.21090021 26.40438847 0.59643793 39.625 1.375 C42.0028413 1.51224705 44.38068964 1.64937223 46.75854492 1.78637695 C62.84923818 2.72101227 78.93144349 3.73638487 95 5 C94.99214478 5.84763916 94.99214478 5.84763916 94.98413086 6.71240234 C94.96337578 9.2665903 94.9503446 11.82076053 94.9375 14.375 C94.92493164 15.70917969 94.92493164 15.70917969 94.91210938 17.0703125 C94.90727539 18.34648437 94.90727539 18.34648437 94.90234375 19.6484375 C94.89448853 20.82672119 94.89448853 20.82672119 94.88647461 22.02880859 C94.87426047 24.07772668 94.87426047 24.07772668 96 26 C96.09604866 27.52626755 96.1307463 29.05665214 96.1328125 30.5859375 C96.13474609 31.51196777 96.13667969 32.43799805 96.13867188 33.39208984 C96.13416016 34.3764502 96.12964844 35.36081055 96.125 36.375 C96.12306641 37.36838379 96.12113281 38.36176758 96.11914062 39.38525391 C96.07846141 46.30411075 95.81237245 53.12384751 95 60 C92.77735746 61.0376342 90.54874335 62.05496179 88.3125 63.0625 C87.68666016 63.35705078 87.06082031 63.65160156 86.41601562 63.95507812 C82.53172095 65.68369094 80.06692804 66.39960947 76 65 C75.34 64.67 74.68 64.34 74 64 C65.77789068 63.24594412 57.44986529 64.27506735 50 68 C51.216875 67.896875 52.43375 67.79375 53.6875 67.6875 C55.76171875 67.51171875 55.76171875 67.51171875 58 68 C60.76953125 70.51953125 60.76953125 70.51953125 63 73 C59.26559042 74.70322417 55.51052074 76.35532781 51.75 78 C50.70585937 78.47695312 49.66171875 78.95390625 48.5859375 79.4453125 C41.08672468 82.6857131 35.1167028 83.64433222 27 83 C25.5454541 82.90549561 25.5454541 82.90549561 24.06152344 82.80908203 C21.20238686 82.60101377 18.3530594 82.34108821 15.5 82.0625 C14.53835937 81.97548828 13.57671875 81.88847656 12.5859375 81.79882812 C8.58263525 81.42247311 4.91539138 80.97884785 1 80 C1 72.74 1 65.48 1 58 C5.43759867 58.31114545 9.87507626 58.62387757 14.3125 58.9375 C15.55580078 59.02451172 16.79910156 59.11152344 18.08007812 59.20117188 C19.30791016 59.28818359 20.53574219 59.37519531 21.80078125 59.46484375 C23.033125 59.54355713 24.26546875 59.62227051 25.53515625 59.70336914 C29 60 29 60 31.76171875 60.52905273 C41.18648488 62.22726525 48.943712 57.92386917 57.375 54.1875 C58.91962356 53.52317891 60.46519249 52.8610514 62.01171875 52.20117188 C64.84253125 50.9902817 67.66709059 49.76677359 70.48583984 48.52807617 C74 47 74 47 76.92041016 45.98950195 C77.6066748 45.66296631 78.29293945 45.33643066 79 45 C79.89830839 41.94727535 79.89830839 41.94727535 80 39 C64.95817804 37.69131302 54.27850927 40.3438194 40.83740234 47.17382812 C39 48 39 48 37 48 C36.80488275 45.25034772 36.61863567 42.50057868 36.4375 39.75 C36.35338867 38.58404297 36.35338867 38.58404297 36.26757812 37.39453125 C36.21923828 36.64042969 36.17089844 35.88632813 36.12109375 35.109375 C36.0739624 34.41811523 36.02683105 33.72685547 35.97827148 33.01464844 C36.00146864 30.86382928 36.4004236 29.05915129 37 27 C36.37657715 26.98018066 35.7531543 26.96036133 35.11083984 26.93994141 C23.26401469 26.54482894 11.70266585 25.97235941 0 24 C0 16.08 0 8.16 0 0 Z " fill="#1A6DB3" transform="translate(107,132)"/>
<path d="M0 0 C10.56 0 21.12 0 32 0 C32.68867852 4.82074963 33.12299297 8.88855043 33.11352539 13.66967773 C33.11344986 14.95047714 33.11337433 16.23127655 33.11329651 17.55088806 C33.10819145 18.92845703 33.10297548 20.30602559 33.09765625 21.68359375 C33.0957886 23.1084844 33.09436634 24.53337569 33.09336853 25.95826721 C33.08957066 29.6884034 33.07976402 33.41849996 33.06866455 37.14862061 C33.05839141 40.96300725 33.05385832 44.77740036 33.04882812 48.59179688 C33.03813902 56.06121588 33.0210958 63.53060236 33 71 C30.56242587 71.02698422 28.12515085 71.04683099 25.6875 71.0625 C24.99720703 71.07087891 24.30691406 71.07925781 23.59570312 71.08789062 C20.4516975 71.10307906 18.00579981 71.00193327 15 70 C15 71.98 15 73.96 15 76 C20.94 75.67 26.88 75.34 33 75 C33.02255193 84.761514 33.04091561 94.52301083 33.05181217 104.28454494 C33.05704078 108.81674094 33.06413801 113.34891827 33.07543945 117.88110352 C33.08626914 122.2512283 33.09227701 126.62133508 33.09487724 130.99147224 C33.09673135 132.66250963 33.10035168 134.33354597 33.10573006 136.00457573 C33.11294159 138.33697551 33.1139909 140.66929993 33.11352539 143.00170898 C33.11712067 143.6994191 33.12071594 144.39712921 33.12442017 145.11598206 C33.11405216 149.88594784 33.11405216 149.88594784 32 151 C23.71708711 151.69024274 16.05272287 152.15321541 8.796875 147.58203125 C4.32596067 143.64568276 2.35862026 139.91130031 0.8125 134.1875 C0.32716797 132.44533203 0.32716797 132.44533203 -0.16796875 130.66796875 C-2.34098417 121.0883374 -2.19573797 111.51622624 -2.1875 101.75 C-2.1882251 100.87435394 -2.1889502 99.99870789 -2.18969727 99.0965271 C-2.18677899 66.06049946 -0.95582113 33.0184994 0 0 Z " fill="#FDFDFE" transform="translate(275,204)"/>
<path d="M0 0 C5.23201402 4.01411052 8.94378297 9.68571411 9.94799805 16.2434082 C10.08229517 18.34252515 10.11214099 20.40857742 10.08203125 22.51171875 C10.07445801 23.25752197 10.06688477 24.0033252 10.05908203 24.77172852 C9.86912562 31.18795703 8.55790285 36.50758293 5.64453125 42.26171875 C5.22042969 43.09960938 4.79632813 43.9375 4.359375 44.80078125 C-2.9309353 57.91927834 -14.11272209 68.62198326 -28.66796875 72.94921875 C-36.71839928 73.88531532 -43.3609646 73.77732775 -50.35546875 69.26171875 C-56.60761695 64.11529982 -58.73997265 57.44404392 -59.671875 49.59765625 C-60.297057 35.60164625 -53.26038806 23.16712404 -44.58984375 12.6875 C-33.98112593 1.16999341 -15.37239752 -9.22343851 0 0 Z " fill="#0274D8" transform="translate(426.35546875,341.73828125)"/>
<path d="M0 0 C4.89488296 3.18736565 7.74502327 7.2101365 9.58984375 12.78125 C12.14805376 26.61994794 8.71100583 38.94050828 0.89453125 50.41015625 C-4.06221478 57.18607918 -9.03332848 62.34910323 -16.0625 66.9375 C-16.64008057 67.31535645 -17.21766113 67.69321289 -17.81274414 68.08251953 C-25.48340065 72.84691596 -33.14424364 73.93156425 -42 73 C-48.1565118 71.28357684 -52.68520807 67.41106221 -56 62 C-61.41757994 49.65200648 -58.59199138 39.5315047 -54.0078125 27.3671875 C-48.37431664 14.57874069 -36.64281377 4.33227381 -24.125 -1.4375 C-16.02624694 -4.3964145 -7.5124461 -4.29282634 0 0 Z " fill="#0274D8" transform="translate(422,247)"/>
<path d="M0 0 C9.67432665 0.58368851 19.33813165 1.23144229 29 2 C29 8.6 29 15.2 29 22 C26.69 22.66 24.38 23.32 22 24 C21.484375 23.175 20.96875 22.35 20.4375 21.5 C18.19950579 18.70515504 18.19950579 18.70515504 14.8125 18.5 C10.27466172 19.09512633 6.26305184 20.37598025 2 22 C2.474375 22.556875 2.94875 23.11375 3.4375 23.6875 C6.49784972 28.21681759 6.16032759 33.32081525 6.125 38.625 C6.12306641 39.32560547 6.12113281 40.02621094 6.11914062 40.74804688 C6.07149852 46.53391606 5.68187443 52.2527727 5 58 C-0.83576634 58.09992751 -6.45517111 57.71764785 -12.25 57.0625 C-19.16626626 56.32147147 -26.05088299 55.79526881 -33 55.5 C-35.48262192 55.37881272 -37.96497604 55.25329607 -40.44726562 55.12548828 C-42.19555338 55.03954529 -43.94431341 54.96285061 -45.69335938 54.89404297 C-62.96318685 54.15540862 -62.96318685 54.15540862 -67.75 49.3125 C-68.84884983 47.88682598 -69.9326884 46.44943551 -71 45 C-72.32324746 43.77814085 -73.67822384 42.58976001 -75.0625 41.4375 C-76.03896484 40.57318359 -76.03896484 40.57318359 -77.03515625 39.69140625 C-78.33803924 38.56983899 -79.68046851 37.49255384 -81.05859375 36.46484375 C-83.19227727 34.71754155 -84.54910943 33.35785641 -86 31 C-86.29296875 27.77783203 -86.29296875 27.77783203 -86.1875 24.2578125 C-86.16042969 23.08621582 -86.13335937 21.91461914 -86.10546875 20.70751953 C-86.07066406 19.81403809 -86.03585938 18.92055664 -86 18 C-78.88309474 18.54871016 -71.76642281 19.10037455 -64.64990234 19.65405273 C-62.23100928 19.84190122 -59.8120644 20.02908377 -57.39306641 20.21557617 C-53.90773772 20.48439523 -50.42260496 20.75564148 -46.9375 21.02734375 C-45.86322754 21.10967758 -44.78895508 21.19201141 -43.68212891 21.27684021 C-39.24381595 21.6248208 -34.83816768 21.99764674 -30.4296875 22.62329102 C-26.79645862 23.02235652 -25.24615919 22.48395849 -22 21 C-20.515 21.495 -20.515 21.495 -19 22 C-20.32 24.64 -21.64 27.28 -23 30 C-20.74199973 29.29060152 -18.49577852 28.55886489 -16.25 27.8125 C-14.99703125 27.40644531 -13.7440625 27.00039063 -12.453125 26.58203125 C-7.39535558 24.26484051 -5.63919369 21.40130925 -3.375 16.4375 C-1.50793493 11.12197595 -0.7875186 5.55895484 0 0 Z " fill="#7D91B2" transform="translate(195,230)"/>
<path d="M0 0 C2.81342525 2.25276061 3.8886946 4.10459362 4.33398438 7.68676758 C4.43176947 11.02888541 4.39657466 14.34506529 4.3125 17.6875 C4.30283203 18.82123047 4.29316406 19.95496094 4.28320312 21.12304688 C4.19474427 27.79592105 3.80050652 34.37489142 3 41 C4.31436035 41.03758423 4.31436035 41.03758423 5.65527344 41.07592773 C8.96541788 41.17214272 12.27544921 41.27129448 15.58544922 41.37231445 C17.00696476 41.41512346 18.42851415 41.45682527 19.85009766 41.49731445 C28.59280062 41.74719411 37.29024512 42.1561519 46 43 C46 44.98 46 46.96 46 49 C45.67 49 45.34 49 45 49 C45 47.35 45 45.7 45 44 C39.81498222 45.41096723 34.79044765 47.01418388 29.84375 49.12109375 C24.52916092 51.36249593 19.19953523 53.5626776 13.859375 55.7421875 C12.19398372 56.42311179 10.52861958 57.10410247 8.86328125 57.78515625 C6.31271858 58.82792503 3.76193379 59.87013333 1.21044922 60.91064453 C-1.30315873 61.93600229 -3.81583863 62.96359625 -6.328125 63.9921875 C-7.14309448 64.32506775 -7.95806396 64.657948 -8.79772949 65.00091553 C-12.76730112 66.63200271 -16.7112305 68.3018561 -20.62304688 70.06738281 C-21.71295929 70.55756393 -21.71295929 70.55756393 -22.82489014 71.05764771 C-24.17942024 71.67139883 -25.53036482 72.29315431 -26.87677002 72.92453003 C-30.37366553 74.51091486 -33.15154707 75.56820266 -37 75 C-39.25860636 73.25054213 -41.17931482 71.56348416 -43.1875 69.5625 C-44.34321235 68.45256491 -45.4994674 67.34319463 -46.65625 66.234375 C-47.2234375 65.68330078 -47.790625 65.13222656 -48.375 64.56445312 C-50.59713789 62.42511124 -52.8862328 60.3661625 -55.1875 58.3125 C-55.98542969 57.59707031 -56.78335938 56.88164062 -57.60546875 56.14453125 C-58.39566406 55.43683594 -59.18585938 54.72914063 -60 54 C-62.48821263 51.76178048 -64.97527027 49.52229601 -67.4609375 47.28125 C-69.25272254 45.67140006 -71.05014627 44.06781536 -72.8515625 42.46875 C-73.76679688 41.6540625 -74.68203125 40.839375 -75.625 40 C-76.46289062 39.2575 -77.30078125 38.515 -78.1640625 37.75 C-79.07285156 36.88375 -79.07285156 36.88375 -80 36 C-80 35.67 -80 35.34 -80 35 C-78.52094768 34.97220987 -77.04172942 34.95326044 -75.5625 34.9375 C-74.32693359 34.92009766 -74.32693359 34.92009766 -73.06640625 34.90234375 C-69.96209491 35.00120717 -66.9312642 35.35870743 -63.84887695 35.72143555 C-60.29595567 36.06884177 -56.73971804 36.27333827 -53.17578125 36.46484375 C-52.10533318 36.5230555 -52.10533318 36.5230555 -51.01325989 36.58244324 C-48.03843182 36.74250587 -45.06349365 36.89966594 -42.08813477 37.04956055 C-32.28256558 37.54866261 -22.70174521 38.4179524 -13 40 C-12.9416279 35.64589022 -12.90627827 31.29188207 -12.875 26.9375 C-12.84986328 25.09381836 -12.84986328 25.09381836 -12.82421875 23.21289062 C-12.74287498 14.40662656 -12.74287498 14.40662656 -15 6 C-15.66 5.34 -16.32 4.68 -17 4 C-5.80616347 -1.04510942 -5.80616347 -1.04510942 0 0 Z " fill="#1C82DC" transform="translate(213,248)"/>
<path d="M0 0 C5.75303162 4.17330573 8.93770351 10.92887867 10.34375 17.796875 C11.81478628 29.64688948 11.27078991 45.69216755 3.86328125 55.65625 C-0.01925143 60.06543538 -4.77236321 61.60767166 -10.375 63.0625 C-11.365 63.0625 -12.355 63.0625 -13.375 63.0625 C-11.375 57.0625 -11.375 57.0625 -10.64453125 55.22265625 C-7.81657734 47.74365123 -7.19872051 39.9605261 -6.375 32.0625 C-6.96249023 32.04791748 -7.54998047 32.03333496 -8.15527344 32.01831055 C-31.27345424 31.3989954 -54.31265647 29.72016929 -77.375 28.0625 C-77.375 23.7725 -77.375 19.4825 -77.375 15.0625 C-75.63734375 15.206875 -73.8996875 15.35125 -72.109375 15.5 C-69.78127018 15.68775039 -67.45314401 15.87523624 -65.125 16.0625 C-63.98546875 16.15789062 -62.8459375 16.25328125 -61.671875 16.3515625 C-58.24101563 16.62447177 -54.81022002 16.85207913 -51.375 17.0625 C-50.34987305 17.14113281 -49.32474609 17.21976563 -48.26855469 17.30078125 C-40.20385449 17.66987508 -34.33838971 15.51522211 -27.125 12.0625 C-26.08214844 11.58554688 -25.03929687 11.10859375 -23.96484375 10.6171875 C-21.42487468 9.45206407 -18.89628476 8.26738443 -16.375 7.0625 C-19.83426921 4.25427303 -21.63217686 3.71454203 -26.125 3.875 C-27.60226563 3.91560547 -27.60226563 3.91560547 -29.109375 3.95703125 C-29.85703125 3.99183594 -30.6046875 4.02664062 -31.375 4.0625 C-29.06912696 1.75662696 -27.60401367 1.37962405 -24.5 0.5 C-23.20449219 0.12681641 -23.20449219 0.12681641 -21.8828125 -0.25390625 C-20.64144531 -0.59228516 -20.64144531 -0.59228516 -19.375 -0.9375 C-18.71757812 -1.12441406 -18.06015625 -1.31132812 -17.3828125 -1.50390625 C-11.50145177 -2.77400555 -5.36006251 -2.96535778 0 0 Z " fill="#FAFBFC" transform="translate(185.375,196.9375)"/>
<path d="M0 0 C7.5178125 0.4640625 7.5178125 0.4640625 15.1875 0.9375 C16.76039795 1.03281006 18.3332959 1.12812012 19.95385742 1.22631836 C21.20013916 1.30503174 22.4464209 1.38374512 23.73046875 1.46484375 C25.63928833 1.58267212 25.63928833 1.58267212 27.58666992 1.70288086 C31 2 31 2 36 3 C36 9.93 36 16.86 36 24 C37.52109375 23.278125 39.0421875 22.55625 40.609375 21.8125 C42.65570709 20.87381555 44.70261333 19.93638204 46.75 19 C47.74644531 18.52304688 48.74289063 18.04609375 49.76953125 17.5546875 C59.67731149 13.0802061 68.44344604 13.37591478 79 15 C79 16.98 79 18.96 79 21 C71.66257433 24.29673126 64.276739 27.47568215 56.875 30.625 C55.73417969 31.11484375 54.59335938 31.6046875 53.41796875 32.109375 C52.30808594 32.58117187 51.19820312 33.05296875 50.0546875 33.5390625 C49.05937012 33.96396973 48.06405273 34.38887695 47.03857422 34.82666016 C40.84696966 37.21753687 35.84737421 38.28903997 29.23828125 37.57421875 C28.52520309 37.50717239 27.81212494 37.44012604 27.07743835 37.37104797 C24.82106609 37.15547612 22.56703466 36.92142698 20.3125 36.6875 C18.78852041 36.54117851 17.26443198 36.39598596 15.74023438 36.25195312 C14.28115185 36.11038294 12.82216344 35.96783863 11.36328125 35.82421875 C10.68405106 35.75748459 10.00482086 35.69075043 9.30500793 35.62199402 C6.0901775 35.28708677 3.14898648 34.78724662 0 34 C0 22.78 0 11.56 0 0 Z " fill="#1C466A" transform="translate(108,156)"/>
<path d="M0 0 C13.24836756 -0.21090021 26.40438847 0.59643793 39.625 1.375 C42.0028413 1.51224705 44.38068964 1.64937223 46.75854492 1.78637695 C62.84968856 2.72103843 78.93021568 3.74800031 95 5 C95 7.97 95 10.94 95 14 C94.67 14 94.34 14 94 14 C94 11.36 94 8.72 94 6 C91.12142677 7.11423388 88.24440089 8.23221679 85.36914062 9.35498047 C82.83817867 10.34316115 80.30251472 11.31790807 77.76367188 12.28564453 C71.5391905 14.67940787 65.51911132 17.15483863 59.6171875 20.28515625 C40.36862632 30.20252319 20.71975166 29.17993792 0 24 C0 16.08 0 8.16 0 0 Z " fill="#1C82DB" transform="translate(107,132)"/>
<path d="M0 0 C14.7340575 -0.16935698 29.30116976 0.0442674 44 0.9375 C44.72443298 0.98106628 45.44886597 1.02463257 46.19525146 1.06951904 C54.14648464 1.55416607 62.08179431 2.11610174 70 3 C70.66338066 18.41045151 70.66338066 18.41045151 67 25 C62.53650343 28.54940359 57.11833017 28.17011012 51.68994141 27.62353516 C49.46780139 27.35607967 47.25243141 27.05123156 45.03515625 26.74609375 C35.9269847 25.53589439 26.74365144 24.95799586 17.58599854 24.24456787 C15.23546107 24.06066404 12.88530867 23.8723444 10.53515625 23.68359375 C9.82024521 23.62945816 9.10533417 23.57532257 8.36875916 23.51954651 C5.38978586 23.2788006 2.84970683 22.94990228 0 22 C0 14.74 0 7.48 0 0 Z " fill="#1D476B" transform="translate(109,226)"/>
<path d="M0 0 C0.2062504 5.15625988 -0.30069281 7.90207844 -2 13 C3.61 11.35 9.22 9.7 15 8 C15 10.31 15 12.62 15 15 C12.77735746 16.0376342 10.54874335 17.05496179 8.3125 18.0625 C7.68666016 18.35705078 7.06082031 18.65160156 6.41601562 18.95507812 C2.53172095 20.68369094 0.06692804 21.39960947 -4 20 C-4.66 19.67 -5.32 19.34 -6 19 C-14.22210932 18.24594412 -22.55013471 19.27506735 -30 23 C-28.783125 22.896875 -27.56625 22.79375 -26.3125 22.6875 C-24.23828125 22.51171875 -24.23828125 22.51171875 -22 23 C-19.23046875 25.51953125 -19.23046875 25.51953125 -17 28 C-20.73440958 29.70322417 -24.48947926 31.35532781 -28.25 33 C-29.29414063 33.47695312 -30.33828125 33.95390625 -31.4140625 34.4453125 C-38.91327532 37.6857131 -44.8832972 38.64433222 -53 38 C-54.4545459 37.90549561 -54.4545459 37.90549561 -55.93847656 37.80908203 C-58.79761314 37.60101377 -61.6469406 37.34108821 -64.5 37.0625 C-65.46164063 36.97548828 -66.42328125 36.88847656 -67.4140625 36.79882812 C-71.41736475 36.42247311 -75.08460862 35.97884785 -79 35 C-79 27.74 -79 20.48 -79 13 C-74.56240133 13.31114545 -70.12492374 13.62387757 -65.6875 13.9375 C-64.44419922 14.02451172 -63.20089844 14.11152344 -61.91992188 14.20117188 C-60.07817383 14.33168945 -60.07817383 14.33168945 -58.19921875 14.46484375 C-56.966875 14.54355713 -55.73453125 14.62227051 -54.46484375 14.70336914 C-51 15 -51 15 -48.23828125 15.52905273 C-38.81351512 17.22726525 -31.056288 12.92386917 -22.625 9.1875 C-21.08037644 8.52317891 -19.53480751 7.8610514 -17.98828125 7.20117188 C-15.15746875 5.9902817 -12.33290941 4.76677359 -9.51416016 3.52807617 C-1.40054322 0 -1.40054322 0 0 0 Z " fill="#567396" transform="translate(187,177)"/>
<path d="M0 0 C-0.474375 1.03125 -0.94875 2.0625 -1.4375 3.125 C-3.75530868 9.18191514 -3.73874328 15.58569705 -4 22 C-3.34 22 -2.68 22 -2 22 C-1.79375 21.154375 -1.5875 20.30875 -1.375 19.4375 C1.39654472 12.50863821 6.18087406 7.92248255 13 5 C16.48027313 4.78692205 18.12132669 5.22574302 20.7421875 7.53515625 C22.37605172 9.30831304 23.81883131 10.89503791 25 13 C24.67 13.99 24.34 14.98 24 16 C23.34 15.67 22.68 15.34 22 15 C17.17511265 14.31213419 13.23178102 14.39418839 9.125 17.1875 C6.3623912 19.43091782 4.56704672 21.77372734 3 25 C4.010625 24.67 5.02125 24.34 6.0625 24 C13.43936232 21.94923228 19.98918372 23.20592697 27 26 C29 28 29 28 29.265625 30.05859375 C29.26046875 30.84363281 29.2553125 31.62867188 29.25 32.4375 C29.25773437 33.61119141 29.25773437 33.61119141 29.265625 34.80859375 C29 37 29 37 27 40 C26.22076172 39.27683594 26.22076172 39.27683594 25.42578125 38.5390625 C18.15851134 31.95687718 13.73250876 30.65983465 4 31 C4.50789063 31.35191406 5.01578125 31.70382813 5.5390625 32.06640625 C11.57285211 36.3940119 16.98494416 41.06401952 20 48 C20.5625 51.4375 20.5625 51.4375 20 55 C17.91866987 57.12380625 15.63235224 58.63016682 13 60 C12.67 60 12.34 60 12 60 C11.92523438 59.0821875 11.85046875 58.164375 11.7734375 57.21875 C10.95261784 49.5577665 10.03203871 43.27803387 4 38 C3.34 38 2.68 38 2 38 C2.04640625 38.67804688 2.0928125 39.35609375 2.140625 40.0546875 C2.41183804 47.04810941 1.58111563 52.8797656 -2 59 C-2.99 59.66 -3.98 60.32 -5 61 C-7.04296875 60.5390625 -7.04296875 60.5390625 -9.1875 59.625 C-10.26064453 59.18027344 -10.26064453 59.18027344 -11.35546875 58.7265625 C-11.89816406 58.48679688 -12.44085938 58.24703125 -13 58 C-12 55 -12 55 -9.5625 52.6875 C-5.94470475 48.89322694 -5.06701966 45.80953083 -4.875 40.625 C-4.91625 39.75875 -4.9575 38.8925 -5 38 C-6.03125 38.66 -7.0625 39.32 -8.125 40 C-14.09118609 43.05847807 -20.47289652 42.33002209 -27 42 C-28.31626692 38.38026598 -29 35.90432869 -29 32 C-28.45472656 32.144375 -27.90945312 32.28875 -27.34765625 32.4375 C-18.0797443 34.78440697 -18.0797443 34.78440697 -9 33 C-9.64066406 32.6596875 -10.28132813 32.319375 -10.94140625 31.96875 C-16.97895097 28.58556548 -22.39063485 25.06421956 -26 19 C-26.25 15.8125 -26.25 15.8125 -25 13 C-22.4375 10.125 -22.4375 10.125 -20 8 C-19.76925781 8.72445312 -19.53851563 9.44890625 -19.30078125 10.1953125 C-17.30777344 16.10343842 -15.49807609 20.62029433 -11 25 C-10.34 25 -9.68 25 -9 25 C-9.2165625 24.40574219 -9.433125 23.81148437 -9.65625 23.19921875 C-12.09552899 15.93784657 -13.47817967 8.43453902 -11 1 C-7.26562152 0.12132271 -3.83225427 -0.08912219 0 0 Z " fill="#1F6AAB" transform="translate(266,132)"/>
<path d="M0 0 C1.93742341 -0.02703381 3.87495479 -0.04641125 5.8125 -0.0625 C6.89144531 -0.07410156 7.97039062 -0.08570313 9.08203125 -0.09765625 C12 0 12 0 15 1 C15.01458252 1.77375977 15.02916504 2.54751953 15.04418945 3.34472656 C13.82526653 34.425261 13.82526653 34.425261 24.8125 61.79296875 C25.451875 62.35628906 26.09125 62.91960937 26.75 63.5 C29.11093315 65.59916658 29.91452665 66.49533562 30.44921875 69.65234375 C30.43875494 72.1392434 30.31258627 74.53404168 30 77 C22.69517918 77.99611193 17.0974672 74.80773682 11 71 C4.56993646 65.97611338 1.89597878 57.95448828 0.71029663 50.07469177 C0.02567326 44.2685031 -0.13138217 38.55739029 -0.09765625 32.71484375 C-0.0962413 31.77314835 -0.09482635 30.83145294 -0.09336853 29.86122131 C-0.08782122 26.88661368 -0.07527887 23.91208445 -0.0625 20.9375 C-0.05747818 18.90690214 -0.05291647 16.87630308 -0.04882812 14.84570312 C-0.03786912 9.89710572 -0.02064152 4.9485661 0 0 Z " fill="#2B7FCA" transform="translate(243,202)"/>
<path d="M0 0 C5.28 0 10.56 0 16 0 C16.68867852 4.82074963 17.12299297 8.88855043 17.11352539 13.66967773 C17.11344986 14.95047714 17.11337433 16.23127655 17.11329651 17.55088806 C17.10819145 18.92845703 17.10297548 20.30602559 17.09765625 21.68359375 C17.0957886 23.1084844 17.09436634 24.53337569 17.09336853 25.95826721 C17.08957066 29.6884034 17.07976402 33.41849996 17.06866455 37.14862061 C17.05839141 40.96300725 17.05385832 44.77740036 17.04882812 48.59179688 C17.03813902 56.06121588 17.0210958 63.53060236 17 71 C14.56242587 71.02698422 12.12515085 71.04683099 9.6875 71.0625 C8.99720703 71.07087891 8.30691406 71.07925781 7.59570312 71.08789062 C4.4516975 71.10307906 2.00579981 71.00193327 -1 70 C-1.07444309 54.38866408 -0.84479607 38.79472883 -0.5 23.1875 C-0.45161917 20.92253038 -0.40344106 18.65755643 -0.35546875 16.39257812 C-0.2393054 10.92833279 -0.12043622 5.46415275 0 0 Z " fill="#BBC3E3" transform="translate(291,204)"/>
<path d="M0 0 C0 22.77 0 45.54 0 69 C-6.32178199 67.94636967 -7.16342861 67.64427063 -11 63 C-17.6420759 52.94199935 -18.17509927 41.58348342 -18.09765625 29.80859375 C-18.0962413 28.97787857 -18.09482635 28.14716339 -18.09336853 27.29127502 C-18.0878317 24.67331125 -18.07529162 22.05543733 -18.0625 19.4375 C-18.05747681 17.64778771 -18.05291535 15.85807405 -18.04882812 14.06835938 C-18.03788308 9.71220567 -18.02066319 5.356118 -18 1 C-15.56257869 0.83210874 -13.12507454 0.66563867 -10.6875 0.5 C-9.99720703 0.45230469 -9.30691406 0.40460938 -8.59570312 0.35546875 C-5.72337641 0.16120511 -2.87986212 0 0 0 Z " fill="#BEC4E4" transform="translate(308,279)"/>
<path d="M0 0 C4.9053675 4.74506138 8.19467641 9.07421709 9 16 C9.02128047 17.55585768 9.02654652 19.11198136 9.01953125 20.66796875 C9.01671143 21.47903076 9.0138916 22.29009277 9.01098633 23.12573242 C9.00736084 23.74424072 9.00373535 24.36274902 9 25 C-14.71480901 24.41135759 -38.34422545 22.70032378 -62 21 C-62 16.71 -62 12.42 -62 8 C-60.26234375 8.144375 -58.5246875 8.28875 -56.734375 8.4375 C-54.40627018 8.62525039 -52.07814401 8.81273624 -49.75 9 C-48.61046875 9.09539062 -47.4709375 9.19078125 -46.296875 9.2890625 C-42.86602025 9.5619714 -39.43520745 9.78945823 -36 10 C-34.47101074 10.11794922 -34.47101074 10.11794922 -32.91113281 10.23828125 C-24.73180401 10.61434234 -18.62645501 8.36949179 -11.25 5 C-10.15945312 4.52304688 -9.06890625 4.04609375 -7.9453125 3.5546875 C-5.28759775 2.38902314 -2.64039438 1.20425556 0 0 Z " fill="#BDC4E4" transform="translate(170,204)"/>
<path d="M0 0 C0.10234659 9.06335876 0.06996173 17.98175113 -1 27 C-6.83576634 27.09992751 -12.45517111 26.71764785 -18.25 26.0625 C-25.16626626 25.32147147 -32.05088299 24.79526881 -39 24.5 C-41.48262192 24.37881272 -43.96497604 24.25329607 -46.44726562 24.12548828 C-48.19555338 24.03954529 -49.94431341 23.96285061 -51.69335938 23.89404297 C-68.96298918 23.15541707 -68.96298918 23.15541707 -74.125 17.9375 C-75.10494957 16.64105954 -76.06902977 15.3320486 -77 14 C-77.66 13.67 -78.32 13.34 -79 13 C-79 12.34 -79 11.68 -79 11 C-69.7658822 10.72064854 -60.80964689 11.27530586 -51.63793945 12.28857422 C-49.09402051 12.56079902 -46.54917429 12.78326053 -44 13 C-43.24589844 13.09603516 -42.49179688 13.19207031 -41.71484375 13.29101562 C-32.99201607 13.95805539 -25.31324476 9.8842252 -17.5 6.5 C-15.30698702 5.56845041 -13.11195614 4.64189474 -10.91564941 3.71813965 C-9.55771585 3.14506016 -8.20205797 2.5665513 -6.84899902 1.98205566 C-2.21704445 0 -2.21704445 0 0 0 Z " fill="#BBC3E4" transform="translate(201,261)"/>
<path d="M0 0 C9.67432665 0.58368851 19.33813165 1.23144229 29 2 C29 8.6 29 15.2 29 22 C26.69 22.66 24.38 23.32 22 24 C21.484375 23.175 20.96875 22.35 20.4375 21.5 C18.19950579 18.70515504 18.19950579 18.70515504 14.8125 18.5 C10.27466172 19.09512633 6.26305184 20.37598025 2 22 C2.495 22.556875 2.99 23.11375 3.5 23.6875 C5.26456614 26.4078728 5.12614484 27.83061087 5 31 C-2.41321582 34.52925825 -9.97153073 37.68879343 -17.5625 40.8125 C-18.55072754 41.22169678 -19.53895508 41.63089355 -20.55712891 42.05249023 C-21.48831543 42.43348877 -22.41950195 42.8144873 -23.37890625 43.20703125 C-24.2201001 43.5522583 -25.06129395 43.89748535 -25.92797852 44.25317383 C-28 45 -28 45 -30 45 C-29.67 38.07 -29.34 31.14 -29 24 C-22 21 -22 21 -19 22 C-20.32 24.64 -21.64 27.28 -23 30 C-20.74199973 29.29060152 -18.49577852 28.55886489 -16.25 27.8125 C-14.37054688 27.20341797 -14.37054688 27.20341797 -12.453125 26.58203125 C-7.39535558 24.26484051 -5.63919369 21.40130925 -3.375 16.4375 C-1.50793493 11.12197595 -0.7875186 5.55895484 0 0 Z " fill="#577497" transform="translate(195,230)"/>
<path d="M0 0 C2.76659346 2.23914938 3.8777497 4.08431624 4.35009766 7.62231445 C4.46889642 10.9034107 4.44953171 14.15509578 4.375 17.4375 C4.36065918 18.60514893 4.34631836 19.77279785 4.33154297 20.97583008 C4.13262984 31.56316542 3.36984809 41.89045572 0 52 C-1.9363704 52.50435694 -3.87414146 53.00333874 -5.8125 53.5 C-6.89144531 53.7784375 -7.97039062 54.056875 -9.08203125 54.34375 C-12 55 -12 55 -15 55 C-14.85595878 52.72905229 -14.70965714 50.45824793 -14.5625 48.1875 C-14.49591187 47.15580688 -14.49591187 47.15580688 -14.42797852 46.10327148 C-14.17222114 42.24533558 -13.84904671 38.40752216 -13.4375 34.5625 C-13.00977567 29.96101408 -12.85965174 25.36928129 -12.8125 20.75 C-12.79832031 19.44546875 -12.78414062 18.1409375 -12.76953125 16.796875 C-13.06356489 11.95279531 -13.47335954 7.52664046 -17 4 C-5.80616347 -1.04510942 -5.80616347 -1.04510942 0 0 Z " fill="#2A7FC9" transform="translate(213,248)"/>
<path d="M0 0 C4.50019746 0.3098398 9.00014356 0.6227779 13.5 0.9375 C14.7684375 1.02451172 16.036875 1.11152344 17.34375 1.20117188 C19.2 1.33168945 19.2 1.33168945 21.09375 1.46484375 C22.22490234 1.543396 23.35605469 1.62194824 24.52148438 1.70288086 C28.35803877 2.03058206 32.17920989 2.52240124 36 3 C36 10.26 36 17.52 36 25 C24.73673257 25 24.73673257 25 20.3515625 24.59765625 C19.40925781 24.51193359 18.46695313 24.42621094 17.49609375 24.33789062 C16.54863281 24.24701172 15.60117188 24.15613281 14.625 24.0625 C13.65433594 23.97548828 12.68367188 23.88847656 11.68359375 23.79882812 C7.64749917 23.4230538 3.9467815 22.98669537 0 22 C0 14.74 0 7.48 0 0 Z " fill="#7D91B2" transform="translate(108,190)"/>
<path d="M0 0 C4.32355878 0.26335101 8.64688445 0.52879655 12.9699707 0.79956055 C14.43929582 0.89095862 15.90869697 0.98114315 17.37817383 1.07006836 C19.49581942 1.19843225 21.61314916 1.33122262 23.73046875 1.46484375 C25.63928833 1.58267212 25.63928833 1.58267212 27.58666992 1.70288086 C31 2 31 2 36 3 C36 9.93 36 16.86 36 24 C23.82645091 24.24593028 12.11935566 23.2673836 0 22 C0 14.74 0 7.48 0 0 Z " fill="#1B5E97" transform="translate(108,156)"/>
<path d="M0 0 C2.91054681 2.13118238 3.84581952 4.64930948 5 8 C5.25878906 10.49194336 5.25878906 10.49194336 5.265625 13.08984375 C5.26949219 14.51393555 5.26949219 14.51393555 5.2734375 15.96679688 C5.26570313 16.94712891 5.25796875 17.92746094 5.25 18.9375 C5.26160156 20.40219727 5.26160156 20.40219727 5.2734375 21.89648438 C5.24598255 32.02049853 5.24598255 32.02049853 3 36 C0.06640625 37.4609375 0.06640625 37.4609375 -3.4375 38.375 C-5.16806641 38.85066406 -5.16806641 38.85066406 -6.93359375 39.3359375 C-10 40 -10 40 -13 40 C-12.34 33.73 -11.68 27.46 -11 21 C-16.94 20.67 -22.88 20.34 -29 20 C-25.99422513 17.99615009 -23.15022736 16.73880258 -19.8125 15.375 C-18.72582031 14.92898437 -17.63914063 14.48296875 -16.51953125 14.0234375 C-15.68808594 13.68570313 -14.85664063 13.34796875 -14 13 C-14.33 10.69 -14.66 8.38 -15 6 C-15.99 5.67 -16.98 5.34 -18 5 C-12.57390676 0.57873884 -6.98822873 -1.21705107 0 0 Z " fill="#2A7FC9" transform="translate(198,150)"/>
<path d="M0 0 C3.72949746 1.72130652 5.62910643 4.50821287 7.4375 8.125 C8.02203144 13.97031437 6.9235404 18.42790011 3.4375 23.125 C1 24.4375 1 24.4375 -1.5625 24.125 C-5.03140966 21.20796233 -7.36268951 19.05745292 -7.8359375 14.48046875 C-8.10931988 5.95304153 -8.10931988 5.95304153 -5.375 1.8125 C-2.5625 0.125 -2.5625 0.125 0 0 Z " fill="#B9C1E3" transform="translate(239.5625,315.875)"/>
<path d="M0 0 C14.50649012 -0.3353025 28.96151166 0.67014854 43.4375 1.5 C46.01885882 1.6449127 48.60023891 1.7894471 51.18164062 1.93359375 C57.45467902 2.28469981 63.72743845 2.64048071 70 3 C70 3.99 70 4.98 70 6 C54.94771485 6.11581422 39.91989955 6.02593192 24.875 5.5625 C24.20194824 5.54285187 23.52889648 5.52320374 22.83544922 5.50296021 C15.18580743 5.27543156 7.60132121 4.90863549 0 4 C0 2.68 0 1.36 0 0 Z " fill="#E8EDF2" transform="translate(70,381)"/>
<path d="M0 0 C0 1.32 0 2.64 0 4 C-0.77902679 4.34586403 -0.77902679 4.34586403 -1.5737915 4.69871521 C-7.09194079 7.14872387 -12.6097736 9.5994443 -18.12744141 12.05053711 C-20.17326247 12.95923996 -22.21915816 13.86777484 -24.26513672 14.77612305 C-26.2529171 15.65865847 -28.24058798 16.54144058 -30.22814941 17.42446899 C-32.21152707 18.30557909 -34.19516984 19.18609264 -36.17907715 20.06600952 C-41.07825831 22.24210604 -45.96797684 24.43607816 -50.84179688 26.66845703 C-51.76192566 27.08837418 -52.68205444 27.50829132 -53.63006592 27.94093323 C-55.36669281 28.73489163 -57.10123043 29.53344108 -58.83331299 30.33726501 C-59.60342712 30.68882156 -60.37354126 31.04037811 -61.16699219 31.40258789 C-61.83800964 31.71241104 -62.5090271 32.02223419 -63.20037842 32.34144592 C-65 33 -65 33 -68 33 C-67.74543762 31.13420105 -67.74543762 31.13420105 -67 29 C-65.30595398 27.82026672 -65.30595398 27.82026672 -63.07299805 26.8527832 C-62.23669357 26.48171951 -61.4003891 26.11065582 -60.53874207 25.72834778 C-59.62232437 25.33975082 -58.70590668 24.95115387 -57.76171875 24.55078125 C-56.81174515 24.1338652 -55.86177155 23.71694916 -54.88301086 23.28739929 C-51.82374372 21.94838747 -48.75605335 20.63007229 -45.6875 19.3125 C-43.69275481 18.44474779 -41.69860693 17.57562115 -39.70507812 16.70507812 C-36.73747439 15.40979675 -33.76912554 14.11648554 -30.79733276 12.83084106 C-23.18400588 9.53594336 -15.6171005 6.14540113 -8.08195496 2.67536926 C-6.92147392 2.14613106 -6.92147392 2.14613106 -5.73754883 1.60620117 C-5.06089676 1.29478683 -4.38424469 0.9833725 -3.68708801 0.66252136 C-2 0 -2 0 0 0 Z " fill="#AEB8DC" transform="translate(425,94)"/>
<path d="M0 0 C22.68247634 0.70382053 45.33807787 1.8223343 68 3 C68 3.99 68 4.98 68 6 C45.31728989 6.18597076 22.67156723 5.64481916 0 5 C0 3.35 0 1.7 0 0 Z " fill="#EAEFF3" transform="translate(71,390)"/>
<path d="M0 0 C0.495 1.98 0.495 1.98 1 4 C-12.4784041 9.96529382 -25.95963732 15.92414615 -39.4453125 21.87298584 C-41.0417507 22.57726316 -42.63811693 23.28170366 -44.234375 23.98638916 C-48.17460614 25.72578009 -52.1173396 27.45932052 -56.0625 29.1875 C-57.43063843 29.79150635 -57.43063843 29.79150635 -58.82641602 30.40771484 C-59.63780029 30.76172363 -60.44918457 31.11573242 -61.28515625 31.48046875 C-62.30428101 31.92749146 -62.30428101 31.92749146 -63.34399414 32.38354492 C-65 33 -65 33 -67 33 C-66.7444458 31.13420105 -66.7444458 31.13420105 -66 29 C-64.31268311 27.82026672 -64.31268311 27.82026672 -62.08886719 26.8527832 C-61.25579041 26.48171951 -60.42271362 26.11065582 -59.56439209 25.72834778 C-58.65111145 25.33975082 -57.73783081 24.95115387 -56.796875 24.55078125 C-55.84927307 24.1338652 -54.90167114 23.71694916 -53.925354 23.28739929 C-50.87280592 21.94842466 -47.81172045 20.63034583 -44.75 19.3125 C-42.76373518 18.44470339 -40.77805113 17.57557617 -38.79296875 16.70507812 C-25.89445476 11.06207769 -12.94689277 5.53092543 0 0 Z " fill="#AEB9DC" transform="translate(424,107)"/>
<path d="M0 0 C3.27061812 1.8054251 5.62916804 3.3457677 7.75 6.4375 C8.15734375 7.01371094 8.5646875 7.58992187 8.984375 8.18359375 C11.46689233 12.62348051 11.15726363 17.04619577 11 22 C10.67 22.99 10.34 23.98 10 25 C6.85069107 26.04976964 4.61185544 26.10131595 1.3125 26.0625 C0.31863281 26.05347656 -0.67523438 26.04445312 -1.69921875 26.03515625 C-2.83810547 26.01775391 -2.83810547 26.01775391 -4 26 C-4 22.76535933 -3.37163804 21.49210452 -2 18.625 C0.59565904 12.44660031 0.37233328 6.59857307 0 0 Z " fill="#B8C2E3" transform="translate(267,168)"/>
<path d="M0 0 C0.42562931 6.95194538 -0.9727548 11.55690964 -5.4375 16.9375 C-8 19 -8 19 -12 19 C-16.41616602 15.8718824 -19.2618807 12.73905263 -22 8 C-22 7.34 -22 6.68 -22 6 C-20.98292969 5.97873047 -20.98292969 5.97873047 -19.9453125 5.95703125 C-12.91899011 5.59695656 -6.05818175 0 0 0 Z " fill="#BAC2E4" transform="translate(262,169)"/>
<path d="M0 0 C20.06859785 -0.35415173 39.98073669 0.74294539 60 2 C59.67 3.32 59.34 4.64 59 6 C57.25009878 6.02792396 55.50005353 6.04679439 53.75 6.0625 C52.28820312 6.07990234 52.28820312 6.07990234 50.796875 6.09765625 C47.72424995 6.01862783 44.74424452 5.81298609 41.6875 5.53125 C33.5530838 4.8179379 25.40951942 4.64801835 17.25 4.4375 C15.66665829 4.39418522 14.08332485 4.35056744 12.5 4.30664062 C8.66675271 4.20094127 4.83341776 4.0993163 1 4 C0.67 2.68 0.34 1.36 0 0 Z " fill="#EFF3F6" transform="translate(75,401)"/>
<path d="M0 0 C2.92643237 1.32856194 5.0700763 2.79564177 7.390625 5.01171875 C8.32503418 5.89585449 8.32503418 5.89585449 9.27832031 6.79785156 C9.92897461 7.42143555 10.57962891 8.04501953 11.25 8.6875 C12.6033254 9.96833738 13.95748265 11.24829644 15.3125 12.52734375 C15.95574219 13.13562012 16.59898437 13.74389648 17.26171875 14.37060547 C19.79866834 16.74863939 22.41212227 19.02869656 25.046875 21.296875 C27.56612276 23.49365905 30.03102996 25.74689619 32.5 28 C36.28934126 31.45575413 40.11083698 34.8652289 43.98046875 38.23046875 C48.89736556 42.53869748 53.72639032 46.94686156 58.578125 51.328125 C62.36474959 54.74305638 66.15583617 58.14986526 70 61.5 C74.71703068 65.61082593 79.35560225 69.80752718 84 74 C85.87474528 75.68778298 87.74973662 77.37529269 89.625 79.0625 C91.08333333 80.375 92.54166667 81.6875 94 83 C89.87065729 83 88.30454355 80.78468862 85.5 78.0625 C81.65083159 74.42322263 77.77192744 70.92900599 73.625 67.625 C67.89972931 63.01826989 62.57819937 58.03187133 57.22265625 53.0078125 C54.17938059 50.1552359 51.07055866 47.3907379 47.9140625 44.6640625 C43.89168375 41.16705567 39.956802 37.57077254 36 34 C35.195625 33.278125 34.39125 32.55625 33.5625 31.8125 C28.45386266 27.22782546 23.38111885 22.60671728 18.33398438 17.95458984 C15.47714336 15.32840817 12.57983658 12.76499449 9.625 10.25 C6.01038149 7.12690911 3.01897722 3.69824709 0 0 Z " fill="#1670BF" transform="translate(129,287)"/>
<path d="M0 0 C8.86763125 -0.65416952 14.02677274 0.99980799 21.0625 6.3125 C23 9 23 9 23.0625 12.4375 C21.92021882 16.2675016 20.501226 18.89241618 18 22 C17.34 22 16.68 22 16 22 C15.67 20.865625 15.34 19.73125 15 18.5625 C12.58277588 12.12420637 7.71016647 6.06470972 1.5 2.9375 C0.675 2.628125 -0.15 2.31875 -1 2 C-0.67 1.34 -0.34 0.68 0 0 Z " fill="#BAC2E3" transform="translate(270,162)"/>
<path d="M0 0 C10.26781809 -0.15230804 20.44459193 0.32709571 30.6875 0.9375 C32.21026647 1.02573628 33.73305294 1.11362803 35.25585938 1.20117188 C38.28704526 1.37579362 41.31811585 1.55225232 44.34912109 1.72998047 C51.89842591 2.17078489 59.44928695 2.5841539 67 3 C67 3.99 67 4.98 67 6 C55.0020809 6.16252449 43.04769251 5.72238124 31.0625 5.20043945 C27.8465543 5.06126901 24.63035174 4.92979168 21.4140625 4.79882812 C19.35675128 4.71139635 17.29945881 4.62352203 15.2421875 4.53515625 C14.28698212 4.49656998 13.33177673 4.4579837 12.34762573 4.41822815 C11.00935226 4.35827919 11.00935226 4.35827919 9.64404297 4.29711914 C8.86543915 4.26380997 8.08683533 4.23050079 7.28463745 4.19618225 C4.80218496 3.98301359 2.43283362 3.5300331 0 3 C0 2.01 0 1.02 0 0 Z " fill="#E9EEF3" transform="translate(72,372)"/>
<path d="M0 0 C2 1.1875 2 1.1875 3 4.1875 C3.12781786 6.86144964 3.04391871 9.50845857 3 12.1875 C1.93072266 11.86265625 1.93072266 11.86265625 0.83984375 11.53125 C-7.88885439 8.99370115 -14.2713435 8.73735081 -23 11.1875 C-21.4373552 7.3519173 -19.01105548 4.98348009 -16 2.1875 C-15.4225 1.589375 -14.845 0.99125 -14.25 0.375 C-9.79789445 -1.97472238 -4.72876806 -1.28070802 0 0 Z " fill="#BAC2E3" transform="translate(291,146.8125)"/>
<path d="M0 0 C1.58409994 0.11487748 3.16728963 0.24234508 4.75 0.375 C5.63171875 0.44460937 6.5134375 0.51421875 7.421875 0.5859375 C9.99066382 0.99850055 11.75841015 1.71160957 14 3 C12.79330981 6.62007058 12.02832006 6.75797786 8.8125 8.5625 C3.99311689 11.59379988 1.77869837 15.02576213 -0.80859375 20.0234375 C-1.20175781 20.67570312 -1.59492188 21.32796875 -2 22 C-2.66 22 -3.32 22 -4 22 C-4.42691034 13.55666209 -4.63421641 7.24096313 0 0 Z " fill="#B9C2E3" transform="translate(266,132)"/>
<path d="M0 0 C8.68517024 0.50645534 17.35209459 1.02295299 26 2 C23.21926774 3.8538215 20.80737755 4.95844875 17.7109375 6.1640625 C16.68742187 6.56367188 15.66390625 6.96328125 14.609375 7.375 C13.54203125 7.7875 12.4746875 8.2 11.375 8.625 C9.76238281 9.25535156 9.76238281 9.25535156 8.1171875 9.8984375 C0.14174107 13 0.14174107 13 -1 13 C-0.67 8.71 -0.34 4.42 0 0 Z " fill="#224B6E" transform="translate(195,230)"/>
<path d="M0 0 C8.19495424 -0.13597822 16.32809488 0.39728879 24.5 0.9375 C25.93292203 1.03010575 27.36586489 1.12238954 28.79882812 1.21435547 C30.91918131 1.35048004 33.03952004 1.48679192 35.15979004 1.62420654 C40.60545513 1.97704861 46.0520438 2.30971351 51.5 2.625 C53.43359375 2.73714844 53.43359375 2.73714844 55.40625 2.8515625 C56.2621875 2.90054687 57.118125 2.94953125 58 3 C58.495 4.485 58.495 4.485 59 6 C49.06320215 6.15113426 39.19715102 5.74344817 29.27832031 5.20043945 C26.74045612 5.06197931 24.20231065 4.93004099 21.6640625 4.79882812 C20.0208128 4.71132223 18.37758285 4.62344459 16.734375 4.53515625 C15.99040466 4.49656998 15.24643433 4.4579837 14.47991943 4.41822815 C9.29261892 4.12954771 4.15972018 3.6088062 -1 3 C-0.67 2.01 -0.34 1.02 0 0 Z " fill="#E9EEF3" transform="translate(77,364)"/>
<path d="M0 0 C0.680625 0.70125 1.36125 1.4025 2.0625 2.125 C7.28187457 7.31496964 12.48270743 11.54184476 19 15 C14.55459325 17.9636045 10.1019166 17.57248178 4.92578125 16.6171875 C1.96623461 15.83542046 0.18922351 15.18922351 -2 13 C-2.37076135 8.18010242 -1.75210338 4.48976491 0 0 Z " fill="#B7C1E3" transform="translate(239,150)"/>
<path d="M0 0 C17.3202852 -0.11039601 34.62305262 -0.0535095 51.9375 0.4375 C52.68368591 0.45714813 53.42987183 0.47679626 54.19866943 0.49703979 C56.30843192 0.55377893 58.41786088 0.61734455 60.52734375 0.68359375 C62.33319946 0.73858032 62.33319946 0.73858032 64.17553711 0.79467773 C67 1 67 1 69 2 C69 2.99 69 3.98 69 5 C45.95846839 4.33445775 22.98838833 2.63795541 0 1 C0 0.67 0 0.34 0 0 Z " fill="#205686" transform="translate(237,119)"/>
<path d="M0 0 C-0.03480469 0.79921875 -0.06960937 1.5984375 -0.10546875 2.421875 C-0.3029367 10.43343171 0.68038487 17.33698574 3 25 C-2.2657622 21.99720998 -5.57557026 18.60198022 -8 13 C-8.56623284 9.90749756 -8.66712075 7.08119331 -8 4 C-3.51219512 0 -3.51219512 0 0 0 Z " fill="#BAC2E4" transform="translate(255,134)"/>
<path d="M0 0 C4.23191496 0.11958255 8.46365866 0.24389445 12.6953125 0.37231445 C14.13049691 0.41523495 15.56571846 0.4569334 17.00097656 0.49731445 C25.03273461 0.72415281 33.0166761 1.0198239 41 2 C38.33154297 4.95898438 38.33154297 4.95898438 35.34765625 5.328125 C28.67104765 5.16934715 28.67104765 5.16934715 26.25537109 5.078125 C23.7602048 4.99169361 21.26579688 4.94987671 18.76953125 4.90625 C16.97129455 4.85626743 15.17311463 4.80419646 13.375 4.75 C12.51011963 4.73614258 11.64523926 4.72228516 10.75415039 4.70800781 C9.93551514 4.67545898 9.11687988 4.64291016 8.2734375 4.609375 C7.18168213 4.5779541 7.18168213 4.5779541 6.06787109 4.54589844 C3.21820032 3.79361227 1.91727241 2.17063977 0 0 Z " fill="#E6ECF1" transform="translate(84,412)"/>
<path d="M0 0 C0.91523437 0.04310303 1.83046875 0.08620605 2.7734375 0.13061523 C3.75054687 0.18290283 4.72765625 0.23519043 5.734375 0.2890625 C6.72695312 0.3394165 7.71953125 0.38977051 8.7421875 0.44165039 C11.65662671 0.59281327 14.57047314 0.7529227 17.484375 0.9140625 C18.6280957 0.97231201 18.6280957 0.97231201 19.79492188 1.03173828 C21.69191169 1.12893866 23.58819545 1.23966349 25.484375 1.3515625 C26.515625 1.41214844 27.546875 1.47273438 28.609375 1.53515625 C31.75579953 1.94983448 34.51126355 2.82126707 37.484375 3.9140625 C37.484375 4.2440625 37.484375 4.5740625 37.484375 4.9140625 C22.6848492 5.19525782 8.19783418 4.53120972 -6.515625 2.9140625 C-6.515625 2.2540625 -6.515625 1.5940625 -6.515625 0.9140625 C-4.07991092 -0.30379454 -2.71069318 -0.13441893 0 0 Z " fill="#E8EEF2" transform="translate(90.515625,356.0859375)"/>
<path d="M0 0 C5.94 0.33 11.88 0.66 18 1 C18 2.32 18 3.64 18 5 C14.38132441 6.2062252 11.07493749 6.10816918 7.3125 6.0625 C6.61060547 6.05798828 5.90871094 6.05347656 5.18554688 6.04882812 C3.45699462 6.03706927 1.72848635 6.01913454 0 6 C0 4.02 0 2.04 0 0 Z " fill="#2C80CA" transform="translate(290,274)"/>
<path d="M0 0 C0.33 2.64 0.66 5.28 1 8 C-4.94 7.67 -10.88 7.34 -17 7 C-14.03171001 5.02114001 -11.22552946 3.74135003 -7.9375 2.375 C-6.87402344 1.92898437 -5.81054688 1.48296875 -4.71484375 1.0234375 C-2 0 -2 0 0 0 Z " fill="#B3BEE1" transform="translate(186,163)"/>
<path d="M0 0 C8.25 0.33 16.5 0.66 25 1 C25.33 1.99 25.66 2.98 26 4 C17.60197746 4.12190678 9.35748222 3.84327749 1 3 C0.67 2.01 0.34 1.02 0 0 Z " fill="#DDE5EC" transform="translate(110,366)"/>
<path d="M0 0 C0 3.3 0 6.6 0 10 C-2.31 10.66 -4.62 11.32 -7 12 C-7.287803 8.94928825 -7.4472872 6.03939738 -7 3 C-4.5776532 0.89638304 -3.21754366 0 0 0 Z " fill="#EDF2F6" transform="translate(363,103)"/>
<path d="M0 0 C0 2.97 0 5.94 0 9 C-4 11 -4 11 -7 11 C-7 8.03 -7 5.06 -7 2 C-3 0 -3 0 0 0 Z " fill="#EBF0F5" transform="translate(378,97)"/>
<path d="M0 0 C0.43695709 5.33087655 0.43695709 5.33087655 0 8 C-2.40859879 10.02829372 -3.83044309 11 -7 11 C-7.08096803 9.54257537 -7.13917774 8.08387193 -7.1875 6.625 C-7.22230469 5.81289062 -7.25710938 5.00078125 -7.29296875 4.1640625 C-7.19628906 3.44992188 -7.09960938 2.73578125 -7 2 C-4 0 -4 0 0 0 Z " fill="#F0F4F7" transform="translate(424,77)"/>
<path d="M0 0 C0 2.97 0 5.94 0 9 C-4 11 -4 11 -7 11 C-7 8.03 -7 5.06 -7 2 C-2.25 0 -2.25 0 0 0 Z " fill="#F3F6F9" transform="translate(409,83)"/>
<path d="M0 0 C0.08096803 1.45742463 0.13917774 2.91612807 0.1875 4.375 C0.22230469 5.18710938 0.25710938 5.99921875 0.29296875 6.8359375 C0.19628906 7.55007812 0.09960938 8.26421875 0 9 C-3 11 -3 11 -6 11 C-6 8.03 -6 5.06 -6 2 C-2 0 -2 0 0 0 Z " fill="#FAFBFC" transform="translate(393,90)"/>
<path d="M0 0 C4.29 0.33 8.58 0.66 13 1 C13 1.99 13 2.98 13 4 C6.07 3.67 -0.86 3.34 -8 3 C-8 2.67 -8 2.34 -8 2 C-5.36 2 -2.72 2 0 2 C0 1.34 0 0.68 0 0 Z " fill="#3683C6" transform="translate(296,399)"/>
<path d="M0 0 C1.32 0 2.64 0 4 0 C4 0.99 4 1.98 4 3 C-0.95 3 -5.9 3 -11 3 C-11 2.67 -11 2.34 -11 2 C-7.37 2 -3.74 2 0 2 C0 1.34 0 0.68 0 0 Z " fill="#BFCEDC" transform="translate(135,375)"/>
<path d="M0 0 C0.66 0.33 1.32 0.66 2 1 C-0.97 3.97 -3.94 6.94 -7 10 C-7 6.04435836 -5.59478606 4.89133304 -3 2 C-2.01 1.34 -1.02 0.68 0 0 Z " fill="#117BD9" transform="translate(398,363)"/>
<path d="M0 0 C0.66 0.33 1.32 0.66 2 1 C-0.97 3.97 -3.94 6.94 -7 10 C-7 6.04435836 -5.59478606 4.89133304 -3 2 C-2.01 1.34 -1.02 0.68 0 0 Z " fill="#127BD9" transform="translate(394,268)"/>
<path d="M0 0 C-1.32 0.33 -2.64 0.66 -4 1 C-4 1.66 -4 2.32 -4 3 C-5.65 3 -7.3 3 -9 3 C-9 2.34 -9 1.68 -9 1 C-6.04335481 -0.4783226 -3.25770263 -0.06032783 0 0 Z " fill="#BCCCDB" transform="translate(93,356)"/>
</svg>
